<?xml version="1.0" standalone="no"?>
<!DOCTYPE svg PUBLIC "-//W3C//DTD SVG 1.1//EN" "http://www.w3.org/Graphics/SVG/1.1/DTD/svg11.dtd" >
<svg xmlns="http://www.w3.org/2000/svg">
<metadata>
Created by FontForge 20120731 at Wed Jun  8 14:29:04 2016
 By admin
</metadata>
<defs>
<font id="iconfont" horiz-adv-x="1024" >
  <font-face 
    font-family="iconfont"
    font-weight="500"
    font-stretch="normal"
    units-per-em="1024"
    panose-1="2 0 6 3 0 0 0 0 0 0"
    ascent="896"
    descent="-128"
    x-height="792"
    bbox="0 -212 1319 896"
    underline-thickness="50"
    underline-position="-100"
    unicode-range="U+0078-E636"
  />
<missing-glyph horiz-adv-x="374" 
d="M34 0v682h272v-682h-272zM68 34h204v614h-204v-614z" />
    <glyph glyph-name=".notdef" horiz-adv-x="374" 
d="M34 0v682h272v-682h-272zM68 34h204v614h-204v-614z" />
    <glyph glyph-name=".null" horiz-adv-x="0" 
 />
    <glyph glyph-name="nonmarkingreturn" horiz-adv-x="341" 
 />
    <glyph glyph-name="x" unicode="x" horiz-adv-x="1001" 
d="M281 543q-27 -1 -53 -1h-83q-18 0 -36.5 -6t-32.5 -18.5t-23 -32t-9 -45.5v-76h912v41q0 16 -0.5 30t-0.5 18q0 13 -5 29t-17 29.5t-31.5 22.5t-49.5 9h-133v-97h-438v97zM955 310v-52q0 -23 0.5 -52t0.5 -58t-10.5 -47.5t-26 -30t-33 -16t-31.5 -4.5q-14 -1 -29.5 -0.5
t-29.5 0.5h-32l-45 128h-439l-44 -128h-29h-34q-20 0 -45 1q-25 0 -41 9.5t-25.5 23t-13.5 29.5t-4 30v167h911zM163 247q-12 0 -21 -8.5t-9 -21.5t9 -21.5t21 -8.5q13 0 22 8.5t9 21.5t-9 21.5t-22 8.5zM316 123q-8 -26 -14 -48q-5 -19 -10.5 -37t-7.5 -25t-3 -15t1 -14.5
t9.5 -10.5t21.5 -4h37h67h81h80h64h36q23 0 34 12t2 38q-5 13 -9.5 30.5t-9.5 34.5q-5 19 -11 39h-368zM336 498v228q0 11 2.5 23t10 21.5t20.5 15.5t34 6h188q31 0 51.5 -14.5t20.5 -52.5v-227h-327z" />
    <glyph glyph-name="uniD600" unicode="&#xd600;" horiz-adv-x="1025" 
d="M273 123l-4 -4q-48 -46 -54 -52q-38 -35 -85 -18q-46 16 -53 67q-1 2 -1 11v520q0 32 22.5 54.5t53.5 22.5h526q28 0 49 -17.5t26 -45.5q1 -4 1 -16v-106q0 -7 7 -7h109q27 0 48 -15.5t28 -40.5q2 -10 2 -20q1 -174 1 -521q0 -34 -23 -57.5t-57 -25t-59 22.5
q-39 38 -121 117q-9 9 -29 28t-29 29q-23 20 -53 20h-228q-45 0 -69 39q-2 2 -8 15v0zM130 387v-255v-9q2 -20 21 -24q15 -4 28 9q26 24 85.5 81.5t91.5 88.5q37 37 90 37h228q26 0 26 26v303q0 26 -26 26h-518q-26 0 -26 -27v-256v0zM894 195v258v9q-4 16 -26 16
q-89 0 -107 1q-7 0 -7 -7v-67v-66q0 -33 -22 -55q-23 -23 -58 -23h-109h-60h-60q-29 0 -48 -18q-23 -22 -70 -67q-2 -3 -2 -7v-23q0 -19 19 -22q4 -1 12 -1h223q52 1 89 -36q18 -17 51.5 -49.5t41.5 -39.5q9 -9 26.5 -26t31.5 -30.5t27 -25.5q11 -11 24 -10q24 4 24 30v259
v0zM540 438q0 17 12 29t29 11.5t28.5 -12.5t11.5 -29q0 -16 -12.5 -28t-28.5 -12q-17 1 -28.5 12.5t-11.5 28.5v0zM253 478q17 0 29 -11.5t12 -28.5t-12 -29t-29 -12t-29 12t-11.5 29t12 28.5t28.5 11.5v0zM376 438q0 17 12 29t29 11q17 0 29 -12t11 -29q0 -16 -12 -28
t-28 -12q-17 0 -29 12t-12 29v0zM376 438z" />
    <glyph glyph-name="uniD601" unicode="&#xd601;" 
d="M871 306l-47 -45q-21 -21 -26.5 -37t-5.5 -49v-105q0 -33 -22 -55.5t-52 -22.5h-502q-31 0 -52.5 22.5t-21.5 55.5v343q0 32 21.5 55t52.5 23h334q39 0 56 3t25 11l49 56l3 3q2 2 5 5.5t3 5.5q-2 6 -12.5 7.5t-49.5 1.5h-523q-30 0 -52 -23t-22 -55v-515q0 -32 22 -55
t52 -23h712q31 0 52.5 23t21.5 55v252q0 50 -3 59q-1 6 -6.5 7t-11.5 -3zM950 474q19 24 29 43.5t13 31.5t-4 26.5t-13 22t-23 24.5q-13 14 -19.5 20t-20 13t-26 4.5t-32 -12t-43.5 -28.5zM770 581l-22 -22q0 -1 -54.5 -58t-107.5 -113l-54 -57q-23 -23 -50 -113.5
t-14 -103.5q13 -14 98.5 13t107.5 53q216 226 218 228q11 13 21 23z" />
    <glyph glyph-name="uniD602" unicode="&#xd602;" 
d="M135 168q66 15 131.5 -3t117.5 -67q25 -25 42 -56t26 -64.5t9.5 -68t-6.5 -65.5q-65 -15 -130.5 7t-116.5 73q-52 49 -69.5 114.5t-3.5 129.5zM899 168q14 -64 -3.5 -129.5t-68.5 -114.5q-25 -25 -58.5 -41.5t-70.5 -27t-77 -13.5t-78 -1h-55v359q-56 6 -103 30
q-38 19 -69 48t-53 64t-34 76.5t-12 86.5q0 60 23 116q46 -11 85 -34.5t69 -57.5q9 65 43 119t85 91q54 -37 88 -92.5t41 -120.5q31 33 70 57.5t85 35.5q22 -54 22 -114q0 -44 -12 -85.5t-34.5 -76.5t-53 -64t-67.5 -48v-1q-27 -13 -55 -21t-59 -10v-257q12 39 35.5 75
t55.5 66q25 25 57 44t66 30.5t69.5 14.5t68.5 -4z" />
    <glyph glyph-name="uniD603" unicode="&#xd603;" 
d="M944 320l-165 -142q-16 -16 -12 -39l38 -227q5 -27 -14 -41q-13 -10 -29 -10q-11 0 -22 6l-208 112q-21 11 -41 0l-200 -112q-26 -14 -50 4q-28 19 -24 41l48 232q4 23 -13 39l-174 137q-21 21 -12 49t39 33l226 39q23 4 33 25l104 219q13 27 43 27t43 -27l100 -219
q11 -21 34 -25l230 -39q29 -5 38.5 -33t-12.5 -49z" />
    <glyph glyph-name="uniD604" unicode="&#xd604;" 
d="M512 738q-122 0 -225.5 -60.5t-164 -164t-60.5 -225.5t60.5 -225.5t164 -164t225.5 -60.5t225.5 60.5t164 164t60.5 225.5t-60.5 225.5t-164 164t-225.5 60.5zM124 288q0 105 52 194.5t141.5 141.5t194.5 52t194.5 -52t141.5 -141.5t52 -194.5q0 -140 -90 -248
q-6 6 -28 17q-29 15 -48.5 17.5t-52.5 16.5l-85 34v62q3 2 7 6.5t13 24.5t14 48q12 -4 17.5 7t5.5 26q0 3 1 10.5t1.5 14.5t0 14.5t-4 12.5t-10.5 5q6 28 6 67q-5 43 -35 72t-89 29q-49 0 -84 -30.5t-39 -70.5q0 -39 5 -67q-9 3 -11 -14q-2 -21 6 -43q0 -11 4.5 -21.5
t11.5 -6.5q3 -27 11.5 -47t15.5 -26l7 -6v-62q-17 -11 -84 -39q-33 -14 -53 -16.5t-49 -17.5q-33 -22 -44 -33q-96 124 -96 264z" />
    <glyph glyph-name="uniD605" unicode="&#xd605;" 
d="M479 500q0 13 9.5 23t23.5 10t23.5 -10t9.5 -23v-505q0 -14 -9.5 -23.5t-23.5 -9.5t-23.5 9.5t-9.5 23.5v505zM322 500q0 14 9.5 23.5t23.5 9.5t23.5 -10t9.5 -23v-505q0 -14 -9.5 -23.5t-23.5 -9.5t-23.5 9.5t-9.5 23.5v505zM635 500q0 13 10 23t24 10q13 0 23 -10
t10 -23v-505q0 -14 -10 -23.5t-23 -9.5q-14 0 -24 9.5t-10 23.5v505zM911 663h-179v42q0 25 -19 41.5t-47 16.5h-308q-28 0 -47.5 -16.5t-19.5 -41.5v-41h-184q-14 0 -23.5 -10t-9.5 -24t9.5 -23.5t23.5 -9.5h70v-702q0 -27 19.5 -46t47.5 -19h537q27 0 46.5 19t19.5 46v702
h64q14 0 24 9.5t10 23.5t-10 23.5t-24 9.5zM358 697h308v-34h-308v34zM745 -104q-430 -1 -467 -1q-16 0 -25 9.5t-9 18.5l-1 9v633q0 17 8.5 25t16.5 7h8h465h5q2 0 9 -1.5t12 -4.5t9 -10t4 -16q0 -18 0.5 -319t0.5 -317q0 -14 -9 -22.5t-18 -9.5zM745 -104z" />
    <glyph glyph-name="uniD606" unicode="&#xd606;" 
d="M512 736q-91 0 -174 -35.5t-143 -95.5t-95.5 -143t-35.5 -174t35.5 -174t95.5 -143t143 -95.5t174 -35.5t174 35.5t143 95.5t95.5 143t35.5 174t-35.5 174t-95.5 143t-143 95.5t-174 35.5zM512 -100q-105 0 -194.5 52t-141.5 141.5t-52 194.5t52 194.5t141.5 141.5
t194.5 52t194.5 -52t141.5 -141.5t52 -194.5t-52 -194.5t-141.5 -141.5t-194.5 -52zM743 415q0 -14 -10 -24l-252 -254q-10 -9 -24 -9t-24 9l-142 144q-10 9 -10 23t9.5 24t23.5 10t24 -10l119 -119l229 230q10 9 24 9t23.5 -9.5t9.5 -23.5z" />
    <glyph glyph-name="uniD607" unicode="&#xd607;" 
d="M511 731q91 0 174 -35.5t142.5 -95.5t95 -142.5t35.5 -173.5t-35.5 -173.5t-95 -142.5t-142.5 -95.5t-174 -35.5t-173.5 35.5t-142.5 95.5t-95 142.5t-35 173.5t35 173.5t95 142.5t142.5 95.5t173.5 35.5zM547 584q-5 1 -14 1.5t-33 -2t-43.5 -10.5t-37.5 -29t-24 -53
v-60q-1 -1 -2 -4t-2.5 -12t0.5 -18t10 -21.5t23 -24.5q34 -40 37 -51q1 -2 1.5 -5t-1 -12.5t-7 -19t-19.5 -23t-35 -25.5q-5 -1 -13.5 -3t-29.5 -9.5t-37.5 -16.5t-29.5 -24t-13 -32v-46h466l2 6v40v19t-37 38.5t-75 30.5l-37 10q-3 1 -7 4t-13.5 12t-14 18.5t-2 23.5
t16.5 27q19 22 24 38q1 0 3 1.5t7 5.5t9 8.5t8 11t6 14t1.5 17t-5.5 18.5v72q-1 1 0 4.5t-1 9.5t-5 11.5t-11.5 9.5t-19.5 4q0 3 -1.5 8.5t-13 18t-30.5 19.5z" />
    <glyph glyph-name="uniD608" unicode="&#xd608;" 
d="M514.5 735q92.5 0 177 -36t145.5 -97t97 -145.5t36 -177t-36 -177t-97 -145.5t-145.5 -97t-177 -36t-176.5 36t-145 97t-97 145.5t-36 177t36 177t97 145.5t145 97t176.5 36zM501 537q-3 1 -8.5 3t-19.5 3t-25.5 -2t-24.5 -16t-19 -35q0 -6 -1.5 -16.5t-7 -40t-13.5 -56
t-23 -57.5t-34 -51h141q0 -2 -0.5 -5t-7.5 -12.5t-17.5 -18.5t-33.5 -21.5t-54 -23.5q-3 -1 -7.5 -2t-16.5 -6.5t-21 -12.5t-16.5 -20t-6.5 -29v-46h482v55q0 9 -3 18t-17 23t-37 20q-5 0 -15 1t-34 7t-42.5 14t-32.5 24t-12 37l131 2q-6 13 -15 33.5t-22 69t-9 79.5
q0 4 -1.5 10t-7.5 22t-13.5 29t-21 26t-29 18t-38 0t-47.5 -23z" />
    <glyph glyph-name="uniD609" unicode="&#xd609;" 
d="M548 340v88h-70v-88q0 -8 -5.5 -13t-12.5 -5h-88v-70h88q7 0 12.5 -5.5t5.5 -12.5v-88h70v88q0 7 5 12.5t13 5.5h88v70h-88q-8 0 -13 5t-5 13zM90 -13q0 -36 26 -62t62 -26h669q37 0 63 26t26 62v18h-846v-18zM918 569h-159v17q0 7 -5 12.5t-12 5.5h-53v17
q0 22 -15.5 37.5t-37.5 15.5h-246q-22 0 -37.5 -15.5t-15.5 -37.5v-17h-53q-7 0 -12.5 -5.5t-5.5 -12.5v-17h-158q-7 0 -12.5 -5.5t-5.5 -12.5v-511h846v511q0 7 -5.5 12.5t-12.5 5.5zM372 586v35q0 8 5 13t13 5h246q8 0 13 -5t5 -13v-35q0 -7 5 -12t12 -5h-317q8 0 13 5
t5 12zM689 234q0 -7 -5 -12.5t-13 -5.5h-88v-88q0 -7 -5 -12t-12 -5h-106q-7 0 -12.5 5t-5.5 12v88h-88q-7 0 -12 5.5t-5 12.5v106q0 7 5 12t12 5h88v88q0 8 5.5 13t12.5 5h106q7 0 12 -5t5 -13v-88h88q8 0 13 -5t5 -12v-106zM548 340v88h-70v-88q0 -8 -5.5 -13t-12.5 -5
h-88v-70h88q7 0 12.5 -5.5t5.5 -12.5v-88h70v88q0 7 5 12.5t13 5.5h88v70h-88q-8 0 -13 5t-5 13zM90 -13q0 -36 26 -62t62 -26h669q37 0 63 26t26 62v18h-846v-18zM918 569h-159v17q0 7 -5 12.5t-12 5.5h-53v17q0 22 -15.5 37.5t-37.5 15.5h-246q-22 0 -37.5 -15.5
t-15.5 -37.5v-17h-53q-7 0 -12.5 -5.5t-5.5 -12.5v-17h-158q-7 0 -12.5 -5.5t-5.5 -12.5v-511h846v511q0 7 -5.5 12.5t-12.5 5.5zM372 586v35q0 8 5 13t13 5h246q8 0 13 -5t5 -13v-35q0 -7 5 -12t12 -5h-317q8 0 13 5t5 12zM689 234q0 -7 -5 -12.5t-13 -5.5h-88v-88
q0 -7 -5 -12t-12 -5h-106q-7 0 -12.5 5t-5.5 12v88h-88q-7 0 -12 5.5t-5 12.5v106q0 7 5 12t12 5h88v88q0 8 5.5 13t12.5 5h106q7 0 12 -5t5 -13v-88h88q8 0 13 -5t5 -12v-106z" />
    <glyph glyph-name="uniD60A" unicode="&#xd60a;" 
d="M947 158q17 60 17 121q0 92 -36 176t-96.5 144.5t-144 96.5t-175.5 36t-176 -36t-144.5 -96.5t-96 -144.5t-35.5 -176t35.5 -175.5t96 -144t144.5 -96.5t176 -36q134 0 246 74q37 -21 79 -21q65 0 112 45.5t49 110.5v10q-2 66 -51 112zM695 117q0 -1 -0.5 -1.5t-0.5 -1.5
t-0.5 -1t-0.5 -1t-1 -1v-1t-0.5 -1.5t-0.5 -1t-1 -1.5q0 -1 -1 -2q0 -1 -1 -2v-2q-1 0 -1 -0.5t-1 -1.5v-1v-1v-2l-1 -1v-1l-0.5 -0.5t-0.5 -1.5v-2h-1v-1v-2l-1 -1v-1v-2q-1 0 -1 -1v-1v-1q0 -1 -0.5 -1t-0.5 -1h-406v48q0 16 13 31.5t31 24.5t36.5 16t31.5 10l13 3
q21 13 35.5 26t19.5 23.5t7 19t1 13.5l-1 4q-1 5 -10.5 18t-18.5 24l-9 10q-24 19 -31 39.5t-2 31.5l4 11v60q15 87 115 95l39 -1q19 -7 30.5 -18.5t13.5 -20.5l1 -8q19 1 28 -9t9 -20v-10v-73q10 -23 3.5 -40.5t-19.5 -26.5l-13 -10q-2 -7 -8 -16.5t-11 -15.5l-5 -7
q-14 -13 -17 -26.5t3 -23.5t13.5 -18.5t14.5 -12.5l6 -4q102 -25 138 -58v-1h-1l-1 -1l-1 -1q-1 0 -1.5 -0.5t-0.5 -1.5h-1v-1q-1 0 -1.5 -0.5t-0.5 -1.5h-1l-2 -2l-1 -1q-1 0 -1 -2h-1v-1l-1 -1l-1 -1h-1v-1q-1 -1 -1.5 -1t-0.5 -1l-2 -2v0q-1 -1 -1 -1.5t-0.5 -1t-1 -0.5
t-0.5 -1l-2 -2q0 -1 -1 -2l-1 -1l-1 -1v-2h-2v-1v-1l-2 -2q0 -1 -0.5 -1t-1.5 -1v-1v-1l-2 -2v-1v-1l-2 -2zM837 -100q-58 0 -99.5 41.5t-41.5 99.5t41.5 99.5t99.5 41.5q59 0 100 -41t41 -100t-41 -100t-100 -41zM894 95l-75 -74l-38 38q-10 10 -24 0q-8 -15 2 -24l48 -48
q5 -5 11.5 -5t10.5 5l87 86q5 5 5 11t-5 11t-11.5 5t-10.5 -5z" />
    <glyph glyph-name="uniD60B" unicode="&#xd60b;" 
d="M913 100q-5 5 -11.5 5t-10.5 -5l-74 -74l-39 38q-10 11 -24 0q-7 -14 2 -24l49 -48q4 -5 10.5 -5t11.5 5l86 86q5 5 5.5 11.5t-5.5 10.5zM945 163q16 60 16 122q0 92 -35.5 175.5t-96.5 144t-144.5 96.5t-175.5 36t-176 -36t-144.5 -96.5t-96 -144t-35.5 -175.5
t35.5 -176t96 -144.5t144.5 -96t176 -35.5q134 0 247 73q37 -21 78 -21q66 0 112.5 45.5t48.5 110.5v10q-2 66 -50 112zM280 78v47q0 24 16.5 41.5t34.5 22.5l17 5q31 11 53.5 23t33.5 22t17.5 18t7.5 13l1 5h-141q30 31 49.5 86t24.5 94l5 39q6 22 18.5 35t25 15.5t24.5 2
t20 -3.5l8 -2q34 24 63 24.5t46 -15t28.5 -37.5t15.5 -36.5t4 -17.5q-4 -31 7.5 -76t24.5 -75l13 -29l-129 -3q-2 -20 11 -36t33 -24.5t41 -14t35 -6.5l15 -1q21 -6 36 -19q-50 -37 -62 -97h-397zM834 -95q-58 0 -99.5 42t-41.5 99q0 59 42 100t99 41q59 0 100 -41t41 -100
t-41 -100t-100 -41z" />
    <glyph glyph-name="uniD60C" unicode="&#xd60c;" 
d="M214 614q49 0 83.5 -34.5t34.5 -83.5t-34.5 -83.5t-83.5 -34.5t-83.5 34.5t-34.5 83.5t34.5 83.5t83.5 34.5zM499 93q-10 0 -19 5l-147 68v-269h-269v269q0 4 0.5 11.5t7.5 28t19.5 37t42 32t69.5 20.5h11h12q42 3 73 -7.5t75 -38.5l111 -62l79 129q9 14 25 18t30 -4.5
t18 -24.5t-5 -30l-98 -162q-12 -20 -35 -20zM412 242h92l-17 -29h-23zM620 344l97 169l13 -8l-96 -169zM960 210h-358v68h291v358h-583v-67h-67v134l717 -3v-490z" />
    <glyph glyph-name="uniD60D" unicode="&#xd60d;" 
d="M609 731v-81h169l-165 -177q-64 44 -143 55t-158 -15.5t-135 -86.5q-61 -66 -80.5 -153t7 -172.5t92.5 -147t152.5 -80.5t171 7t146.5 93q87 93 91 215.5t-80 224.5l173 187v-190h80v321h-321zM604 29.5q-69 -74.5 -171 -78t-176.5 65.5t-78.5 171t65.5 176.5t171.5 78.5
t176.5 -65.5t78 -171.5t-65.5 -176.5z" />
    <glyph glyph-name="uniD60E" unicode="&#xd60e;" horiz-adv-x="1028" 
d="M609 30q-93 0 -172.5 46t-125.5 125t-46 172.5t46 172.5t125.5 125.5t172.5 46.5t172.5 -46.5t125.5 -125.5t46 -172.5t-46 -172.5t-125.5 -125t-172.5 -46zM609 615q-100 0 -170.5 -71t-70.5 -170.5t70.5 -170t170.5 -70.5t170.5 70.5t70.5 170t-70.5 170.5t-170.5 71z
M358 229l73 -73l-261 -261l-73 73zM178 221l240 -240l-72 -73l-240 240z" />
    <glyph glyph-name="uniD60F" unicode="&#xd60f;" 
d="M992 -72h-120v-120h-48v120h-120v48h120v120h48v-120h120v-48zM776 144q-119 96 -264 96q-179 0 -305.5 -126.5t-126.5 -305.5h-48q0 165 100 293.5t256 169.5q-64 34 -102 96.5t-38 136.5q0 109 77.5 186.5t186.5 77.5t186.5 -77.5t77.5 -186.5q0 -74 -38 -136.5
t-102 -96.5q118 -31 212 -127h-72zM728 504q0 89 -63.5 152.5t-152.5 63.5t-152.5 -63.5t-63.5 -152.5t63.5 -152.5t152.5 -63.5t152.5 63.5t63.5 152.5z" />
    <glyph glyph-name="uniD610" unicode="&#xd610;" 
d="M438 723h-317q-16 0 -28 -11.5t-12 -28.5v-317q0 -16 12 -27.5t28 -11.5h317q17 0 28.5 11.5t11.5 27.5v317q0 17 -11.5 28.5t-28.5 11.5zM443 366q0 -5 -5 -5h-317q-5 0 -5 5v317q0 6 5 6h317q5 0 5 -6v-317zM335 605h-111q-10 0 -17.5 -7.5t-7.5 -17.5v-110
q0 -11 7.5 -18t17.5 -7h111q10 0 17.5 7t7.5 18v110q0 10 -7.5 17.5t-17.5 7.5zM325 479h-91v91h91v-91zM335 135h-111q-10 0 -17.5 -7.5t-7.5 -17.5v-111q0 -10 7.5 -17.5t17.5 -7.5h111q10 0 17.5 7.5t7.5 17.5v111q0 10 -7.5 17.5t-17.5 7.5zM325 9h-91v91h91v-91z
M687 445h111q10 0 17.5 7t7.5 18v110q0 10 -7.5 17.5t-17.5 7.5h-111q-10 0 -17.5 -7.5t-7.5 -17.5v-110q0 -11 7.5 -18t17.5 -7zM697 570h91v-91h-91v91zM438 256h-317q-16 0 -28 -12t-12 -28v-317q0 -17 12 -28.5t28 -11.5h317q17 0 28.5 11.5t11.5 28.5v317
q0 16 -11.5 28t-28.5 12zM443 -101q0 -5 -5 -5h-317q-5 0 -5 5v317q0 5 5 5h317q5 0 5 -5v-317zM586 254q-16 0 -28 -11.5t-12 -27.5v-183q0 -7 5 -12t12.5 -5t12.5 5t5 12v183q0 5 5 5h192q7 0 12 5t5 12t-5 12t-12 5h-192zM584 327h317q17 0 28.5 11.5t11.5 27.5v317
q0 17 -11.5 28.5t-28.5 11.5h-317q-16 0 -28 -11.5t-12 -28.5v-317q0 -16 12 -27.5t28 -11.5zM579 683q0 6 5 6h317q5 0 5 -6v-317q0 -5 -5 -5h-317q-5 0 -5 5v317zM941 237q0 7 -5 12t-12 5h-63q-8 0 -13 -5t-5 -12t5 -12t13 -5h46v-67h-144q-7 0 -12 -5t-5 -12t5 -12
t12 -5h161q7 0 12 5t5 12v1v100zM623 -107h-42v48q0 7 -5 12.5t-12.5 5.5t-12.5 -5.5t-5 -12.5v-65q0 -7 5 -12t13 -5h59q7 0 12 5t5 12t-5 12t-12 5zM814 27q0 7 -5 12t-12 5h-109q-8 0 -13 -5t-5 -12v-153q0 -7 5 -12t12.5 -5t12.5 5t5 12v136h92q7 0 12 5t5 12zM923.5 90
q-7.5 0 -12.5 -5t-5 -12v-183h-156q-7 0 -12 -5t-5 -12t5 -12t12 -5h174q7 0 12 5t5 12v200q0 7 -5 12t-12.5 5zM647 183q-7 0 -12 -5t-5 -12v-56q0 -7 5 -12t12 -5t12 5t5 12v56q0 7 -5 12t-12 5z" />
    <glyph glyph-name="uniD611" unicode="&#xd611;" 
d="M407 482l-201 57q-12 3 -22.5 -2.5t-13.5 -17t2.5 -22t17.5 -13.5l202 -57q4 -1 8 -1q9 0 17 5.5t11 15.5q3 11 -3 21.5t-18 13.5zM407 136l-202 57q-11 3 -21.5 -2.5t-13.5 -17t2.5 -22t17.5 -13.5l202 -57q4 -2 8 -2q9 0 17 6t11 16q3 11 -3 21.5t-18 13.5zM407 309
l-202 57q-11 3 -21.5 -2.5t-13.5 -17t2.5 -22t17.5 -13.5l202 -57q3 -1 8 -1q22 0 28 21q3 11 -3 21.5t-18 13.5zM631 79q3 0 7 1l203 57q11 4 17 14t2.5 21.5t-14 17.5t-21.5 3l-202 -57q-11 -3 -17 -13.5t-3 -22.5q3 -9 10.5 -15t17.5 -6zM910 755l-381 -104q-8 -2 -21 -2
t-20 2l-372 103q-24 7 -44.5 -8t-20.5 -41v-701q0 -22 14.5 -40.5t35.5 -24.5l372 -103q16 -4 36 -4t35 4l381 104q21 5 35.5 23.5t14.5 40.5v701q0 26 -20 41t-45 9zM116 -5q-3 0 -5 3.5t-2 5.5v692l364 -100q4 -1 11 -2v-701zM918 4q0 -3 -3 -5.5t-5 -3.5l-368 -100v700
l1 1h1l374 101v-693zM631 426q4 0 7 1l203 57q11 3 17 13.5t2.5 22t-14 17t-21.5 2.5l-202 -57q-11 -3 -17 -13.5t-3 -21.5q3 -10 10.5 -15.5t17.5 -5.5zM631 252q4 0 7 1l203 57q11 4 17 14t2.5 21.5t-14 17.5t-21.5 3l-202 -57q-11 -3 -17 -13.5t-3 -22.5q3 -9 10.5 -15
t17.5 -6zM631 252z" />
    <glyph glyph-name="uniD612" unicode="&#xd612;" 
d="M971 29q-37 57 -91 99q-54 43 -118 66q-12 4 -25 7q40 20 72 51q76 77 76 184.5t-76 183.5t-184 76q-47 0 -95 -19q-54 27 -111 27q-108 0 -184 -76.5t-76 -184t76 -183.5q31 -32 71 -51q-13 -4 -27 -8q-64 -23 -118 -66q-53 -42 -90 -99q-38 -58 -54 -125l40 -10
q30 122 130 202q48 38 106 59q60 21 124.5 21t124.5 -21q58 -21 106 -59q100 -79 130 -202l40 10q-16 67 -54 125q-36 57 -90 99q-27 22 -61 40q10 1 11 1q64 0 124 -21q58 -21 107 -59q99 -79 130 -202l40 10q-17 67 -54 125zM418.5 225q-90.5 0 -154.5 64t-64 154.5
t64 154.5t154.5 64t154.5 -64t64 -154.5t-64 -154.5t-154.5 -64zM563 228q23 15 39 31q77 77 77 184.5t-77 183.5q-5 5 -25 21q27 7 48 7q90 0 154.5 -64t64.5 -154.5t-64.5 -154.5t-154.5 -64q-28 0 -62 10z" />
    <glyph glyph-name="uniD613" unicode="&#xd613;" 
d="M689 54h-354q-13 0 -21 -9t-8 -20q0 -13 9 -21t20 -8h354q13 0 21 8.5t8 20.5q0 11 -9.5 20t-19.5 9zM808 613h-58q0 24 -16.5 40.5t-41.5 16.5h-29v33q0 24 -16.5 40.5t-40.5 16.5h-177q-24 0 -41 -16.5t-17 -40.5v-29h-36q-24 0 -40.5 -17t-16.5 -41h-62q-38 0 -64 -26
t-26 -64v-620q0 -38 26 -64t64 -26h592q38 0 64 26t26 64v620q-3 35 -29 61t-61 26zM379 613h43v32q0 24 16.5 41t41.5 17h61q24 0 41 -17t17 -41v-29h43q18 0 30.5 -13t12.5 -30q0 -18 -13 -30.5t-30 -12.5h-267q-18 0 -30.5 13t-12.5 30q3 17 15.5 28.5t31.5 11.5z
M837 -65q0 -25 -17 -41.5t-41 -16.5h-534q-24 0 -41 16.5t-17 41.5v562q0 24 17 41t41 17h29v-29q0 -24 16.5 -41t41.5 -17h353q42 0 58 62q1 4 1 9.5t-0.5 11t-0.5 7.5h29q24 0 40.5 -16.5t16.5 -40.5v-566h8zM689 201h-354q-13 0 -21 -8.5t-8 -19.5q0 -13 9 -21t20 -8h354
q13 0 21 8.5t8 20.5q0 10 -9.5 19t-19.5 9zM689 349h-354q-13 0 -21 -8.5t-8 -20.5q0 -10 9.5 -19t19.5 -9h354q13 0 21 8.5t8 19.5t-9.5 20t-19.5 9z" />
    <glyph glyph-name="uniD614" unicode="&#xd614;" 
d="M918 51l-156 119q-48 30 -78 0l-27 -27l-20 -17q-95 71 -169 145q-66 66 -125 149l47 47q30 30 0 78l-118 159q-15 15 -39 15t-39 -15l-108 -105q-13 -13 -19 -28.5t-7.5 -27t4 -33t9 -32.5t13.5 -38q12 -21 34 -55.5t86.5 -121t126.5 -147.5q137 -137 311 -242l10 -5
q104 -55 155 0l105 105q21 18 22.5 41t-18.5 36zM853 -13l-77 -78q-10 -9 -39.5 -10t-41.5 7q-27 17 -68.5 44.5t-131.5 96t-135 116.5q-66 68 -133.5 158t-103.5 156q-18 64 7 85l78 78q11 10 25.5 11t24.5 -11l75 -102q19 -32 0 -51l-64 -60q20 -34 45.5 -68t52 -63
t53.5 -56.5t53.5 -51t50 -43.5t45.5 -36.5t36.5 -27t26 -18.5t12.5 -8l61 61q19 19 50 0l102 -75q6 -8 7 -17.5t-2 -17t-9 -19.5z" />
    <glyph glyph-name="uniD615" unicode="&#xd615;" 
d="M317 331q25 0 68.5 35.5t43.5 76.5q0 46 -33 79t-79 33t-78.5 -33t-32.5 -79t32.5 -79t78.5 -33zM317 497q22 0 38 -16t16 -38t-16 -38t-37.5 -16t-38 16t-16.5 38t15.5 38t38.5 16zM898 663h-775q-36 0 -59.5 -24t-23.5 -59v-584q0 -35 23.5 -59t59.5 -24h775
q35 0 59 24t24 59v584q2 35 -22.5 59t-60.5 24zM927 25q0 -24 -16 -39t-38 -15h-722q-21 0 -37.5 16t-16.5 38v526q0 24 16 39t38 15h722q23 0 38.5 -16t15.5 -38v-526zM418 115q8 8 8 19.5t-8 16.5l-75 76q0 2 -2.5 4.5t-5.5 2.5q-5 6 -14 7.5t-15 -3.5q-3 0 -10 -8
q0 -3 -4 -3l-137 -137q-8 -8 -8 -19.5t8 -16.5q8 -8 19.5 -8t16.5 8l123 122l65 -65q28 -7 39 4zM703 288q0 3 -2 5t-5 2q-6 6 -14.5 7.5t-14.5 -3.5q-4 0 -11 -7q0 -4 -3 -4l-246 -245q-8 -8 -8 -19.5t8 -16.5q9 -8 20 -8t16 8l231 231l148 -94q8 -8 19.5 -8t16.5 8
q8 8 8 19t-8 17z" />
    <glyph glyph-name="uniD616" unicode="&#xd616;" 
d="M397 -86h-275v780h650v-255q31 -12 61 -32v352h-780v-910h416q-29 18 -53 42q-4 4 -11 12.5t-8 10.5zM186 546h520v-65h-520v65zM186 338v-65h164q16 33 41 65h-205zM316 129h-130v-65h136q-6 32 -6 65zM655 431q-127 0 -217 -90t-90 -217.5t90 -217.5t217.5 -90
t217.5 90t90 217.5t-90 217.5t-218 90v0zM655 -122q-101 0 -173 72t-72 173.5t72 173t173.5 71.5t173.5 -71.5t72 -173t-72 -173.5t-174 -72v0zM656 277h-39v-193h193v39h-154v154zM656 277z" />
    <glyph glyph-name="uniD617" unicode="&#xd617;" 
d="M950 157q-25 34 -59 67q-14 14 -32 30t-29 25l-10 8q-35 35 -83.5 35t-83.5 -35q-40 -32 -73 -64q-14 -15 -28.5 -31.5t-21.5 -25.5l-7 -9q-35 -35 -35 -83.5t35 -83.5q34 -42 67 -76q14 -14 30 -27.5t25 -20.5l8 -6q35 -35 83.5 -35t83.5 35q31 22 63 54q14 15 31 34
t26 30l10 12q35 35 35 83.5t-35 83.5v0zM894 49q0 -7 -5 -12t-12 -5h-99v-91q0 -8 -5 -16.5t-12 -8.5h-49q-7 0 -12 5t-5 12v99h-99q-7 0 -12 4.5t-5 12.5v49q0 7 5 12t12 5h99v99q0 7 5 12t12 5h49q7 0 12 -5t5 -12v-99h99q7 0 12 -5t5 -12v-49zM547 -134h-321
q-25 0 -43 18t-18 43v669q0 26 18 43.5t43 17.5h74q8 0 14 6t6 14.5t-6 14.5t-14 6h-74q-42 0 -71.5 -30t-29.5 -72v-669q0 -42 29.5 -71.5t71.5 -29.5h362q-23 19 -41 40zM746 657h73q25 0 43 -17.5t18 -43.5v-254q8 -3 21.5 -17.5t18.5 -18.5v290q0 42 -29.5 72t-71.5 30
h-73q-8 0 -14 -6t-6 -14.5t6 -14.5t14 -6zM279 534q0 -19 13 -32t32 -13h397q19 0 32 13t13 32t-13 32t-32 13h-78v99q0 30 -21 51t-51 21h-97q-30 0 -51.5 -21t-21.5 -51v-99h-77q-19 0 -32 -13t-13 -32zM522 709q20 0 34 -14t14 -33.5t-14 -33.5t-33.5 -14t-33.5 14
t-14 33.5t14 33.5t33 14zM279 352q0 -19 13 -32.5t32 -13.5h242q36 37 69.5 59t77.5 32h-389q-19 0 -32 -13.5t-13 -31.5zM279 352z" />
    <glyph glyph-name="uniD618" unicode="&#xd618;" 
d="M622 -34q0 73 52 125t125 52q52 0 95 -28v565q0 25 -18 43t-43 18h-649q-25 0 -42.5 -18t-17.5 -43v-770q0 -26 17.5 -43.5t42.5 -17.5h482q-44 50 -44 117zM286 501h446q8 0 14 -6t6 -14.5t-6 -14.5t-14 -6h-446q-9 0 -14.5 6t-5.5 14.5t5.5 14.5t14.5 6zM286 324h446
q8 0 14 -5.5t6 -14t-6 -14.5t-14 -6h-446q-9 0 -14.5 6t-5.5 14.5t5.5 14t14.5 5.5zM535 138h-257q-5 0 -8.5 6t-3.5 14.5t3.5 14.5t8.5 6h257q5 0 8.5 -6t3.5 -14.5t-3.5 -14.5t-8.5 -6zM799 119q-64 0 -109.5 -45t-45.5 -108.5t45.5 -108.5t109.5 -45t109.5 45t45.5 108.5
t-45.5 108.5t-109.5 45zM866 18q11 -9 2 -20l-88 -106l-54 64q-10 10 1 19.5t21 -1.5l32 -38l65 80q9 11 21 2z" />
    <glyph glyph-name="uniD619" unicode="&#xd619;" 
d="M512 745q-94 0 -179.5 -37t-147.5 -99t-98.5 -147.5t-36.5 -179.5t36.5 -179.5t98.5 -147.5t147.5 -98.5t179.5 -36.5t179.5 36.5t147.5 98.5t98.5 147.5t36.5 179.5t-36.5 179.5t-98.5 147.5t-147.5 99t-179.5 37zM512 -129q-112 0 -206.5 55t-150 150t-55.5 206.5
t55.5 206.5t150 150t206.5 55t206.5 -55t150 -150t55.5 -206.5t-55.5 -206.5t-150 -150t-206.5 -55zM522 584h-51v-352h5l296 -120l19 47l-269 109v316z" />
    <glyph glyph-name="uniD61A" unicode="&#xd61a;" 
d="M943 541l-72 60q-6 4 -13 3.5t-12 -6.5l-418 -511l-269 220q-6 5 -13 4t-12 -6l-59 -73q-4 -6 -3.5 -13t6.5 -12l279 -228l3 -3l73 -59q5 -5 12.5 -4.5t11.5 6.5l489 598q4 5 3.5 12.5t-6.5 11.5z" />
    <glyph glyph-name="uniD61B" unicode="&#xd61b;" 
d="M950 290q0 89 -35 170t-93.5 140t-139.5 93.5t-170 34.5t-170 -34.5t-140 -93.5t-93.5 -140t-34.5 -170t34.5 -170t93.5 -139.5t140 -93.5t170 -35q145 0 263 90q5 6 5 13q0 8 -5.5 13.5t-13.5 5.5t-14 -6q-105 -77 -235 -77q-107 0 -198.5 53t-144.5 144t-53 199
t53 199.5t144.5 144.5t199 53t199 -53t144.5 -144.5t53 -199.5q0 -100 -45 -185q-1 -4 -1 -6q0 -8 5.5 -13.5t13.5 -5.5q13 0 18 12q50 96 50 201zM507 524q0 9 -6 15t-15 6t-15 -6t-6 -15v-249v-4q0 -3 2 -10t6 -12.5t12.5 -10t21.5 -4.5h225q9 0 15 6t6 14.5t-6 14.5
t-15 6h-225v249z" />
    <glyph glyph-name="uniD61C" unicode="&#xd61c;" 
d="M666 -85h-618q11 87 67.5 156t136.5 96q-44 25 -71 71.5t-27 100.5q0 82 59.5 141.5t141.5 59.5t141.5 -59.5t59.5 -141.5q0 -54 -27 -100.5t-72 -71.5q82 -27 138.5 -95.5t70.5 -156.5zM980 36h-325q-61 103 -158 139q44 24 68 68.5t24 99.5q0 60 -30.5 112.5
t-79.5 77.5q19 60 70.5 95.5t119.5 35.5q82 0 141.5 -59t59.5 -142q0 -54 -27 -100t-71 -71q83 -34 138.5 -101.5t69.5 -154.5z" />
    <glyph glyph-name="uniD61D" unicode="&#xd61d;" 
d="M699 238h-176v243q0 14 -9 24t-21.5 10t-21.5 -10t-9 -24v-271v-2v-1q0 -12 9 -21q9 -10 21 -10h2h2h203q14 0 24 9t10 22t-10 22t-24 9zM512 745q-92 0 -175.5 -36t-144.5 -96.5t-96.5 -144.5t-35.5 -176t35.5 -175.5t96.5 -144t144.5 -96.5t175.5 -36t175.5 36
t144.5 96.5t96.5 144t35.5 175.5t-35.5 176t-96.5 144.5t-144.5 96.5t-175.5 36zM512 -93q-105 0 -193.5 51.5t-140 140.5t-51.5 193.5t51.5 193t140 140.5t193.5 52t193.5 -52t140 -140.5t51.5 -193t-51.5 -193.5t-140 -140.5t-193.5 -51.5z" />
    <glyph glyph-name="uniD61E" unicode="&#xd61e;" 
d="M512 766q-97 0 -180 -48t-131 -130.5t-48 -179.5q0 -150 253 -471q59 -75 106 -127q15 16 39 44t86 108t109 151t86 155t39 140q0 97 -48 179.5t-131 130.5t-180 48zM514 170q-99 0 -169 70t-70 169t70 169t169 70t169 -70t70 -169t-70 -169t-169 -70zM514 555
q-62 0 -106 -43.5t-44 -105.5t44 -106t106 -44t105.5 44t43.5 106t-43.5 105.5t-105.5 43.5z" />
    <glyph glyph-name="uniD61F" unicode="&#xd61f;" 
d="M119 -135q-18 0 -28 13q-7 9 -6.5 23.5t5 30.5t17.5 55q15 46 22 70q11 40 9 49q-42 86 -42 183q0 114 56.5 211.5t153.5 154t211.5 56.5t212 -56.5t154 -154t56.5 -212t-56.5 -211.5t-154 -153.5t-211.5 -56.5q-110 0 -205 53h-4q-23 0 -109 -31q-64 -24 -81 -24z
M309 -23q18 0 30 -7q83 -47 179 -47q99 0 183 49t133 133.5t49 183.5t-49 183.5t-133 133.5t-183 49t-183.5 -49t-133.5 -133.5t-49 -183.5q0 -84 37 -159q5 -11 5 -25t-5 -36t-11 -43t-17 -56l-1 -1q-8 -27 -12 -39q10 3 33 12q95 35 128 35zM511 23q-110 0 -187.5 78
t-77.5 187.5t77.5 187t187.5 77.5t187.5 -77.5t77.5 -187t-77.5 -187.5t-187.5 -78zM511 497q-86 0 -147.5 -61t-61.5 -147.5t61.5 -148t147.5 -61.5t147.5 61.5t61.5 148t-61.5 147.5t-147.5 61zM511 173q-48 0 -81.5 34t-33.5 81.5t33.5 81.5t81.5 34t81.5 -34t33.5 -81.5
t-33.5 -81.5t-81.5 -34zM510.5 347q-24.5 0 -41.5 -17t-17 -41.5t17 -42t41.5 -17.5t42 17.5t17.5 42t-17.5 41.5t-42 17z" />
    <glyph glyph-name="uniD620" unicode="&#xd620;" horiz-adv-x="1105" 
d="M742 -54h-712q12 100 77.5 179.5t158.5 111.5q-52 29 -83 82.5t-31 115.5q0 95 68.5 163.5t163.5 68.5t163.5 -68.5t68.5 -163.5q0 -62 -31.5 -115.5t-82.5 -82.5q94 -31 159 -110t81 -181zM961 354h-95v95q0 13 -9.5 22.5t-22.5 9.5h-32q-13 0 -22.5 -9.5t-9.5 -22.5
v-95h-95q-13 0 -22 -9t-9 -22v-32q0 -13 9 -22.5t22 -9.5h95v-95q0 -13 9.5 -22t22.5 -9h32q13 0 22.5 9t9.5 22v95h95q13 0 22 9.5t9 22.5v32q0 13 -9 22t-22 9z" />
    <glyph glyph-name="uniD621" unicode="&#xd621;" 
d="M837 -168q-24 12 -24 38l-1 736q-1 46 -18 60t-67 14l1 -257q0 -18 -12.5 -30.5t-30.5 -12.5t-30.5 12.5t-12.5 30.5v258h-369l28 -1q-53 0 -69.5 -16t-16.5 -69l1 86h-1v-768h1l-1 87q0 -54 16.5 -70t69.5 -16l-56 -1h438q17 0 29.5 -12.5t12.5 -30t-12.5 -30
t-29.5 -12.5h-425h-43q-35 0 -60 25t-25 60v46v677v45q0 35 23.5 59.5t58.5 25.5l601 1q34 -1 58.5 -24.5t26.5 -57.5v-772q0 -29 -17.5 -51t-43.5 -30zM727 681v-1l39 1h-39zM812 681v-25v25z" />
    <glyph glyph-name="uniD622" unicode="&#xd622;" 
d="M719 468h-428q-18 0 -30.5 12.5t-12.5 30t12.5 30t30.5 12.5h428q18 0 30.5 -12.5t12.5 -30t-12.5 -30t-30.5 -12.5zM719 297h-428q-18 0 -30.5 12.5t-12.5 30t12.5 30t30.5 12.5l428 1q18 0 30.5 -12.5t12.5 -30.5t-12.5 -30.5t-30.5 -12.5zM870 134v-1l-1 -1l-285 -285
q-13 -20 -36 -20q-9 0 -17 4h-1q-6 3 -11 8l-1 1h-1q-1 1 -1.5 2.5t-1.5 1.5q-1 2 -3 5q-7 12 -6 26v209v43q0 35 25 60t61 25h45h168v393q-2 46 -19 60.5t-66 14.5l39 1h-494l28 -1q-52 0 -68.5 -16t-16.5 -69v86h-1l1 -768v87q0 -54 16.5 -70t68.5 -16l-52 -1h135
q18 0 30.5 -12.5t12.5 -30t-12.5 -30t-30.5 -12.5h-126h-42q-36 0 -61 25t-25 60v46v677v45q0 35 24 59.5t58 25.5l601 1q35 -1 59 -24.5t26 -57.5v-506q1 -5 1 -9q0 -24 -20 -36zM590 127v-77l1 76l86 1q-53 0 -69.5 -16.5t-17.5 -67.5l1 -69l152 153h-153zM804 681h-1
l1 -28v28z" />
    <glyph glyph-name="uniD623" unicode="&#xd623;" horiz-adv-x="1033" 
d="M783 100q1 -6 1 -10l1 -8h-2v-2v-2l-1 -4q-5 -15 -19.5 -22t-29.5 -1q-15 5 -22 20l-1 -1l-1 9q-1 5 -1 10l-10 110l153 163l-223 47l-111 195v-3l-110 -194l-218 -48l148 -160l-31 -233l211 101l82 -37v-1q14 -7 20 -21t1 -28l-1 -4q-5 -16 -19.5 -23t-30.5 -1h-1l-1 1
l-51 24l-259 -124q-22 6 -34 25l35 289l-199 215q2 22 17 38l281 55l144 264q16 4 31 0l144 -264l280 -55q15 -16 17 -39l-198 -214zM729 -40l53 -53l132 133q12 12 28.5 12t28 -12t11.5 -28.5t-11 -28.5l-157 -158l-1 -2q-1 -2 -2 -3q-12 -12 -29 -11q-17 -1 -29 11
q-1 1 -2 3t-2 2l-76 77q-12 12 -12 29t11.5 28.5t28 11.5t28.5 -11z" />
    <glyph glyph-name="uniD624" unicode="&#xd624;" horiz-adv-x="1055" 
d="M904 224l-1 -85h-53q39 1 46.5 14t7.5 71zM820 139h30h-30zM778 353l-86 -1q-17 0 -29.5 12.5t-12.5 30.5t12.5 30.5t29.5 12.5h86q18 0 30 -12.5t12 -30t-12 -30t-30 -12.5zM568 438q17 0 29.5 -12.5t12.5 -30t-12.5 -30t-29.5 -12.5l-86 -1q-17 0 -29.5 12.5
t-12.5 30.5t12.5 30.5t29.5 12.5h86zM148 192v32v-32zM207 139h-59v53q1 -34 11 -43t48 -10zM272 438h86q17 0 29.5 -12.5t12.5 -30t-12.5 -30t-29.5 -12.5l-86 -1q-18 0 -30 12.5t-12 30.5t12 30.5t30 12.5zM905 53h-45h-317l-200 -202q-12 -13 -29.5 -13t-30 13
t-12.5 30.5t13 30.5l208 210q13 17 32 17h1h1h378v448q-1 42 -10.5 53t-46.5 12h56l1 -51v51h-68h11h-14h-631q-34 -1 -44 -11t-11 -42v-460h169q17 0 29.5 -12.5t12.5 -30.5t-12.5 -30.5t-29.5 -12.5h-125h-44q-34 0 -58.5 24t-25.5 58v518q0 34 23 58.5t57 25.5l762 1
q32 0 55 -21t28 -52v-536q-3 -32 -27 -54t-56 -22zM147 652v-31v31h26h-26z" />
    <glyph glyph-name="uniD625" unicode="&#xd625;" 
d="M966 -185q-7 -7 -17 -7t-17 7l-175 175q-119 -94 -270 -94q-92 0 -177 37l37 37q68 -26 140 -26q105 0 194.5 52t141 141.5t51.5 194.5t-51.5 194.5t-141 141.5t-195 52t-194.5 -52t-141 -141.5t-52 -194.5q0 -139 89 -247l-35 -34q-102 121 -102 281q0 89 34.5 169.5
t92.5 139t139 93t169.5 34.5t169.5 -34.5t139.5 -93t93 -139t34.5 -169.5t-34 -169t-95 -141l172 -173q7 -7 7 -17t-7 -17zM966 -185z" />
    <glyph glyph-name="uniD626" unicode="&#xd626;" 
d="M564 348q3 420 0 420q118 0 213.5 -54t149.5 -150t54 -216h-417v0zM946 262q0 -92 -35.5 -176t-96 -145t-144.5 -97t-175.5 -36t-175 36t-144 97t-96.5 145t-36 176.5t36 176.5t96.5 145t144 97t175.5 36q11 0 34 -2v-401h414q3 -26 3 -52v0zM909 276h-414v406
q-114 0 -210 -56t-151.5 -153t-55.5 -211t55.5 -210.5t151.5 -152.5t209.5 -56t209.5 56t151.5 152.5t55.5 210.5l-1 23l-1 -9v0zM909 276z" />
    <glyph glyph-name="uniD627" unicode="&#xd627;" horiz-adv-x="1492" 
d="M1242 -108h-997q-32 0 -55 23t-23 55v636q0 32 23 55t55 23h997q32 0 54.5 -23t22.5 -55v-636q0 -32 -22.5 -55t-54.5 -23zM245 644q-16 0 -27 -11.5t-11 -26.5v-636q0 -15 11 -26.5t27 -11.5h997q15 0 26.5 11t11.5 27v636q0 15 -11.5 26.5t-26.5 11.5h-997zM355 451
h388v-60h-388v60zM355 182h388v-60h-388v60zM899 361q0 49 35 83q34 35 83 35t84 -35q34 -35 34 -83q0 -49 -34 -84q-35 -34 -84 -34t-83 34q-35 35 -35 84zM857 118q0 41 47 69t113.5 28t113.5 -28t47 -69h-321z" />
    <glyph glyph-name="uniD628" unicode="&#xd628;" horiz-adv-x="1273" 
d="M625 278q89 0 152.5 63.5t63.5 152.5t-63.5 152.5t-152.5 63.5t-152.5 -63.5t-63.5 -152.5t63.5 -152.5t152.5 -63.5v0zM625 679q76 0 130 -54t54 -130.5t-54 -130.5t-130.5 -54t-130.5 54t-54 130.5t54.5 130.5t130.5 54v0zM950 352q-45 0 -80 28q-12 10 -21.5 -2
t1.5 -22q44 -35 100 -35q65 0 111.5 46t46.5 111t-46.5 111.5t-111.5 46.5q-56 0 -100 -36q-12 -9 -2 -21.5t22 -2.5q35 29 80 29q53 0 90 -37.5t37 -89.5t-37 -89t-90 -37v0zM848 166q-16 26 -40 44t-45.5 25t-44.5 10t-32.5 3t-14.5 -1h-96h-13q-7 0 -26.5 -4t-37.5 -11
t-40 -23.5t-37 -38.5q-21 -29 -48.5 -120.5t-43.5 -164.5q-2 -6 1.5 -11.5t9.5 -7t11.5 2t7.5 9.5q16 71 42.5 160t44.5 114q15 22 36.5 36.5t42.5 19.5t31 6.5t18 1.5h1h98q3 1 11.5 1t28 -2.5t37.5 -8.5t38.5 -20.5t33.5 -36.5v-1q1 0 1 -1q19 -24 47.5 -112t44.5 -157
q3 -12 15 -12q2 0 4 1q6 1 9.5 6.5t1.5 11.5q-15 67 -44 158.5t-53 122.5v0zM300 321q56 0 99 35q13 10 3 22t-22 2q-35 -29 -80 -29q-53 0 -90 37.5t-37 89.5t37 89t90 37q45 0 80 -28q12 -10 21.5 2t-2.5 22q-43 35 -99 35q-65 0 -111.5 -46t-46.5 -111t46 -111t112 -46v0
zM1149 103q-25 112 -50 148q-11 16 -27.5 28t-29 17t-28 8t-19.5 3h-9h-67q-3 1 -10 1t-23 -2t-31 -6.5t-32.5 -16t-29.5 -28.5q-9 -13 3.5 -22t21.5 4q31 43 100 39h69q1 1 15 -0.5t36 -12t35 -30.5q22 -30 45 -137q3 -12 15 -12h4q6 1 9.5 6.5t2.5 12.5v0zM435 231
q8 -13 22 -5q5 3 6.5 9t-1.5 12q-12 19 -29.5 32.5t-33.5 19t-32 7.5t-24.5 2t-10.5 -1h-68h-9q-4 0 -19.5 -3t-28 -8t-29 -17t-27.5 -29q-25 -35 -50 -148q-1 -6 2.5 -11.5t9.5 -6.5h3q13 0 15 12q24 106 45 137q30 43 88 43h70q5 1 20 0.5t41.5 -11.5t39.5 -34v0zM435 231
z" />
    <glyph glyph-name="uniD629" unicode="&#xd629;" 
d="M367 83h-37q-9 0 -16 7t-7 16.5t7 16t16 6.5h37q9 0 15.5 -6.5t6.5 -16t-6.5 -16.5t-15.5 -7zM367 411h-37q-9 0 -16 6.5t-7 16t7 16t16 6.5h37q9 0 15.5 -6.5t6.5 -16t-6.5 -16t-15.5 -6.5zM367 247h-37q-9 0 -16 6.5t-7 16t7 16.5t16 7h37q9 0 15.5 -7t6.5 -16.5
t-6.5 -16t-15.5 -6.5zM512 -162q-186 0 -318 132t-132 318t132 318t318 132q98 0 186 -40q10 -9 10.5 -18t-7.5 -14.5t-18 -0.5q-81 37 -171 37q-112 0 -207.5 -55.5t-151 -151t-55.5 -207.5t55.5 -207.5t151 -151t207.5 -55.5t207.5 55.5t151 151t55.5 207.5q0 47 -10 91
q-5 22 12 27q15 4 21 -11q2 -4 2 -8q11 -48 11 -99q0 -92 -35.5 -175t-96 -143.5t-143.5 -96t-175 -35.5zM476 129h290q10 0 16.5 -6.5t6.5 -16t-6.5 -16.5t-16.5 -7h-290q-10 0 -16.5 7t-6.5 16.5t6.5 16t16.5 6.5zM476 411q-10 0 -16.5 6.5t-6.5 16t6.5 16t16.5 6.5h81
q10 0 16.5 -6.5t6.5 -16t-6.5 -16t-16.5 -6.5h-81zM579 259q-1 -1 -3 -2q-7 -10 -18 -10h-82q-10 0 -16.5 7t-6.5 16t6.5 16t16.5 7h72l315 306q7 6 16.5 6t16 -6.5t6.5 -16t-7 -16.5zM579 259z" />
    <glyph glyph-name="uniD62A" unicode="&#xd62a;" 
d="M990 283q0 99 -36.5 186t-105.5 156q-65 65 -152 101t-184.5 36t-184.5 -36t-152 -101q-66 -69 -102 -156.5t-36 -185.5q0 -97 36.5 -184t101.5 -152t152 -101.5t184.5 -36.5t184.5 36.5t152 101.5q68 64 105 151t37 185zM862.5 634.5q69.5 -69.5 108 -160t38.5 -191
t-38.5 -191t-108.5 -159.5q-68 -69 -158 -106t-192.5 -37t-192.5 37t-158.5 105.5t-105.5 158.5t-37 192.5t37 192.5t106 158q69 70 159.5 108.5t191 38.5t191 -38.5t160 -108zM701 487h-379q-18 0 -30.5 -12.5t-12.5 -29.5v-318q0 -18 12.5 -30.5t30.5 -12.5h379
q18 0 30.5 12.5t12.5 30.5v318q0 17 -12.5 29.5t-30.5 12.5v0zM322 459h379q5 0 9.5 -4t4.5 -10v-171q-53 43 -113 43q-48 0 -133 -67q-61 -52 -90 -52q-38 0 -71 33v214q0 6 4.5 10t9.5 4v0zM701 113h-379q-5 0 -9.5 4t-4.5 10v66q1 0 9 -4.5t11.5 -6t11 -4.5t12.5 -4.5
t12.5 -2.5t14.5 -1q15 0 35.5 9.5t34 19t39.5 28.5q70 61 114 61q27 0 55.5 -13t43.5 -26l14 -13v-109q0 -6 -4.5 -10t-9.5 -4v0zM426 283q24 0 40.5 17.5t16.5 39.5q0 25 -17.5 43.5t-39.5 18.5q-25 0 -43.5 -18.5t-18.5 -43.5q0 -21 19 -39t43 -18v0zM426 374q11 0 20 -10
t9 -24q0 -10 -9 -19t-20 -9t-19.5 9t-8.5 19q0 15 7 24.5t21 9.5v0zM426 374z" />
    <glyph glyph-name="uniD62B" unicode="&#xd62b;" 
d="M993 289q0 97 -38 185.5t-104 154.5q-68 68 -154.5 104.5t-184.5 36.5q-99 0 -187.5 -37t-152.5 -104q-67 -64 -104 -152.5t-37 -187.5q0 -98 36.5 -184.5t104.5 -154.5q66 -66 154.5 -104t185.5 -38q96 0 182.5 37.5t156.5 104.5q67 69 104.5 156t37.5 183zM865 643
q70 -69 108.5 -159.5t38.5 -194.5q0 -100 -38.5 -190.5t-108.5 -163.5q-149 -141 -353 -141q-105 0 -195.5 36.5t-158.5 104.5q-69 73 -107.5 163.5t-38.5 190.5q0 104 38.5 194.5t107.5 159.5t159.5 107.5t194.5 38.5q100 0 190.5 -38.5t162.5 -107.5zM700 82h-382
q-21 0 -36.5 15t-15.5 37v259q0 21 15.5 36.5t36.5 15.5h66v14q0 14 12 26t26 12h160q18 0 30.5 -12t12.5 -26v-14h75q22 0 39.5 -15.5t17.5 -36.5v-259q0 -22 -16 -37t-41 -15v0zM729 393q0 11 -9 19.5t-20 8.5h-103v24q0 10 -9 19t-20 9h-132q-10 0 -16.5 -8.5t-6.5 -19.5
v-24h-52h-43q-10 0 -16.5 -8.5t-6.5 -19.5v-90h94q7 43 42 73.5t80.5 30.5t80.5 -30.5t42 -73.5h95v90zM413 284q0 -42 28 -70.5t71 -28.5q39 0 69 29t30 70q0 39 -30 69.5t-69 30.5q-42 0 -70.5 -30t-28.5 -70v0zM729 280h-95q-3 -51 -39 -84.5t-88 -33.5q-49 0 -84 34
t-39 84h-94v-146q0 -11 9 -20t19 -9h382q11 0 17.5 8.5t6.5 20.5zM729 280z" />
    <glyph glyph-name="uniD62C" unicode="&#xd62c;" 
d="M975 287q0 94 -37 179.5t-101 144.5q-137 137 -324 137q-96 0 -181 -35.5t-143 -101.5q-66 -58 -101.5 -143t-35.5 -181q0 -192 137 -329q59 -63 144.5 -100t179.5 -37q180 0 324 137q65 68 101.5 152t36.5 177zM851 625q67 -63 104.5 -150t37.5 -188q0 -97 -37.5 -184.5
t-104.5 -158.5q-144 -137 -338 -137q-102 0 -189 36t-149 101q-67 71 -104.5 158.5t-37.5 184.5q0 101 37.5 188t104.5 150q63 67 150 104.5t188 37.5q189 0 338 -142zM275 255q0 -46 16 -85.5t43 -65t62.5 -43.5t74.5 -22t78 -1t74.5 21t63.5 43t45 65t19 88h-476zM577 429
q0 27 23 50q18 18 46 18q18 0 45 -18q19 -18 19 -50q0 -28 -18.5 -46t-45.5 -18q-34 0 -46 18q-23 23 -23 46zM317 429q0 22 18 50q27 18 50 18q18 0 46 -18q18 -18 18 -50q0 -28 -18.5 -46t-45.5 -18q-32 0 -50 18q-18 27 -18 46z" />
    <glyph glyph-name="uniD62D" unicode="&#xd62d;" 
d="M787 319h-242v242q0 14 -9 23t-23 9t-23 -9t-9 -23v-242h-242q-14 0 -23 -9t-9 -23q0 -11 9.5 -19t22.5 -8h242v-247q0 -11 9.5 -19.5t22.5 -8.5t22.5 8.5t9.5 19.5v247h242q11 0 19.5 6.5t8.5 15.5v14q0 10 -8.5 16.5t-19.5 6.5zM975 287q0 94 -37 179.5t-101 144.5
q-137 137 -324 137q-96 0 -181 -35.5t-143 -101.5q-66 -58 -101.5 -143t-35.5 -181q0 -192 137 -329q59 -63 144.5 -100t179.5 -37q180 0 324 137q65 68 101.5 152t36.5 177zM851 625q67 -63 104.5 -150t37.5 -188q0 -97 -37.5 -184.5t-104.5 -158.5q-144 -137 -338 -137
q-102 0 -189 36t-149 101q-67 71 -104.5 158.5t-37.5 184.5q0 101 37.5 188t104.5 150q63 67 150 104.5t188 37.5q189 0 338 -142z" />
    <glyph glyph-name="uniD62E" unicode="&#xd62e;" 
d="M972 287q0 94 -37 179.5t-100 144.5q-137 137 -324 137q-96 0 -181 -35.5t-144 -101.5q-65 -58 -101 -143t-36 -181q0 -192 137 -329q60 -63 145.5 -100t179.5 -37q180 0 324 137q64 68 100.5 152t36.5 177zM849 625q67 -63 104.5 -150t37.5 -188q0 -97 -37.5 -184.5
t-104.5 -158.5q-144 -137 -338 -137q-102 0 -189 36t-149 101q-67 71 -104.5 158.5t-37.5 184.5q0 101 37.5 188t104.5 150q63 67 150 104.5t188 37.5q189 0 338 -142zM292 205h438v-87h-438v87zM671 328h91v-87h-91v87zM534 328h91v-87h-91v87zM397 328h91v-87h-91v87z
M260 328h91v-87h-91v87zM671 461h91v-92h-91v92zM534 461h91v-92h-91v92zM397 461h91v-92h-91v92zM260 461h91v-92h-91v92z" />
    <glyph glyph-name="uniD62F" unicode="&#xd62f;" 
d="M975 287q0 94 -37 179.5t-101 144.5q-137 137 -324 137q-96 0 -181 -35.5t-143 -101.5q-66 -58 -101.5 -143t-35.5 -181q0 -192 137 -329q59 -63 144.5 -100t179.5 -37q180 0 324 137q65 68 101.5 152t36.5 177zM851 625q67 -63 104.5 -150t37.5 -188q0 -97 -37.5 -184.5
t-104.5 -158.5q-144 -137 -338 -137q-102 0 -189 36t-149 101q-67 71 -104.5 158.5t-37.5 184.5q0 101 37.5 188t104.5 150q63 67 150 104.5t188 37.5q189 0 338 -142zM298 282q0 21 14 42q14 13 37 13q20 0 41 -13q13 -21 13 -42q0 -27 -13 -41q-21 -13 -41 -13
q-23 0 -37 13.5t-14 40.5zM728 273v32q-4 78 -38.5 149.5t-89.5 120.5h-23q-15 0 -26 -10t-11 -27q0 -9 13 -20t24 -16q82 -90 82 -206q0 -135 -96 -224q-23 -7 -23 -36q0 -14 11.5 -25.5t25.5 -11.5q6 0 11.5 1t8.5 2l3 2q56 49 90 119t38 150zM476 456q-9 9 -22 9
q-11 0 -19.5 -9t-8.5 -23q0 -5 1.5 -9.5t4 -8t4.5 -6t5 -5t3 -3.5q29 -17 46.5 -49.5t17.5 -69t-17.5 -69t-46.5 -49.5q0 -1 -4 -4t-6.5 -5.5t-5 -8.5t-2.5 -14q0 -14 8.5 -23t19.5 -9q6 0 11.5 2t8.5 4l2 3q42 27 64.5 73t22.5 100.5t-22.5 100.5t-64.5 73z" />
    <glyph glyph-name="uniD630" unicode="&#xd630;" 
d="M903 232h-336v-336q0 -23 -16.5 -39t-39.5 -16t-39.5 16t-16.5 39v336h-336q-23 0 -39.5 16.5t-16.5 39.5t16.5 39.5t39.5 16.5h336v336q0 23 16.5 39.5t39.5 16.5t39.5 -16.5t16.5 -39.5v-336h336q23 0 39.5 -16.5t16.5 -39.5t-16.5 -39.5t-39.5 -16.5z" />
    <glyph glyph-name="uniD631" unicode="&#xd631;" horiz-adv-x="1025" 
d="M924 473l-498 -499l-364 -136l137 363l498 499q38 38 91 38t91 -38l45 -45q38 -38 38 -91t-38 -91zM248 160l136 -137l404 405l-136 136zM879 610l-45 46q-19 19 -45.5 19t-45.5 -19l-46 -46l136 -137l46 46q19 19 19 45.5t-19 45.5z" />
    <glyph glyph-name="uniD632" unicode="&#xd632;" 
d="M943 271q-5 -112 -62.5 -205.5t-153 -148t-208.5 -54.5q-115 0 -213 57t-155 155t-57 213t57 213t155 155t213 57q108 0 201 -51t151 -138v164q0 11 7 18t17 7t17.5 -7t7.5 -18v-218q0 -10 -7.5 -17t-17.5 -7h-218q-10 0 -17 7t-7 17t7 17t17 7h156q-52 78 -134.5 124
t-179.5 46q-102 0 -188.5 -50t-137 -137t-50.5 -189t50.5 -189t137 -137t188.5 -50q100 0 185.5 48.5t136.5 132t54 183.5q0 10 7.5 17t17.5 7t17 -7t7 -17q0 -1 -1 -5zM871 494v6l-10 -6h10z" />
    <glyph glyph-name="uniD633" unicode="&#xd633;" 
d="M169 668l723 -722l-38 -38l-722 723zM892 631l-723 -723l-37 38l722 722z" />
    <glyph glyph-name="uniD634" unicode="&#xd634;" 
d="M841 747h-653q-18 0 -30.5 -12.5t-12.5 -29.5v-813q0 -18 12.5 -30.5t30.5 -12.5h653q18 0 30.5 12.5t12.5 30.5v813q0 17 -12.5 29.5t-30.5 12.5zM840 -65q0 -16 -11 -27t-26 -11h-574q-15 0 -26 11t-11 27v726q0 16 11 27t26 11h452v-233q0 -7 4.5 -11.5t10.5 -4.5h32
q7 0 11.5 4.5t4.5 11.5v233h1h58q15 0 26 -11t11 -27v-726z" />
    <glyph glyph-name="uniD635" unicode="&#xd635;" 
d="M266 216q-4 -3 -4 -4q-53 -51 -56 -54q-39 -35 -87 -18q-47 17 -55 68v12v534q0 32 23 55t55 23q211 1 539 0q28 0 50 -18t27 -46q1 -5 1 -16v-110q0 -6 7 -6h112q28 0 49.5 -16t28.5 -42q2 -10 2 -20q1 -282 0 -535q0 -35 -23 -59t-58 -25.5t-61 23.5q-22 22 -123 119
q-57 55 -61 59q-22 21 -53 21h-234q-47 0 -71 39q-1 1 -8 16zM119 487v-262q0 -6 1 -9q1 -20 20 -25q16 -4 30 10q24 23 85.5 82.5t95.5 91.5q39 38 92 38h234q27 0 27 26v311q0 27 -27 27h-531q-27 0 -27 -27v-263zM903 290v265q0 6 -1 8q-4 18 -26 18h-55h-55q-7 0 -7 -7
v-68v-69q0 -34 -23 -56q-23 -23 -59 -24h-112q-113 0 -123 1q-29 0 -49 -19q-24 -23 -71 -69q-3 -3 -3 -7v-23q0 -20 19 -23q5 -1 13 -1h228q54 1 92 -37l95 -91q58 -57 87 -85q12 -11 25 -9q11 1 18 9t7 21v266zM539 539q1 18 13 30t29.5 12t29.5 -12.5t12 -30.5
q-1 -17 -13 -29t-29 -12q-18 1 -30 13t-12 29zM246 581q17 0 29 -12.5t12 -29.5t-12 -29.5t-29.5 -12.5t-29.5 12.5t-12 30t12 29.5t30 12zM372 539q0 18 12 30t30 12q17 -1 29 -13t12 -30q0 -17 -12.5 -29t-29.5 -12t-29.5 12.5t-11.5 29.5zM372 539z" />
    <glyph glyph-name="uniD637" unicode="&#xd637;" 
d="M806 52q0 -24 -9.5 -44.5t-26.5 -36.5t-39.5 -25t-48.5 -9h-340q-26 0 -48.5 9t-39.5 25t-26.5 36.5t-9.5 44.5v663q0 24 9.5 45t26.5 37t39.5 25t48.5 9h340q26 0 48.5 -9t39.5 -25t26.5 -37t9.5 -45v-663zM728 669h-433v-570h433v570zM512 72q-21 0 -35.5 -14.5
t-14.5 -35.5q0 -20 14.5 -35t35.5 -15t35 15t14 35q0 21 -14 35.5t-35 14.5v0zM588 751q0 7 -4.5 11.5t-10.5 4.5h-122q-5 0 -10 -4.5t-5 -12t4.5 -12t10.5 -4.5h122q6 0 10.5 4.5t4.5 12.5v0zM588 751z" />
    <glyph glyph-name="uniD638" unicode="&#xd638;" 
d="M625 165v-170h-463v778h463v-170h58v183q0 19 -13 32.5t-32 13.5h-488q-19 0 -32.5 -13.5t-13.5 -32.5v-804q0 -19 13.5 -32.5t32.5 -13.5h488q19 0 32 13.5t13 32.5v183h-58zM897 361q10 10 10 24t-10 24l-142 153q-10 10 -16.5 7t-6.5 -16v-80q0 -14 -10 -23.5
t-23 -9.5h-227q-14 0 -24 -9.5t-10 -23.5v-43q0 -14 10 -24t24 -10h227q13 0 23 -9.5t10 -23.5v-79q0 -14 6.5 -16.5t16.5 7.5z" />
    <glyph glyph-name="uniD641" unicode="&#xd641;" 
d="M384 893h254q103 0 191 -51t138.5 -138.5t50.5 -191.5v-254q0 -104 -50.5 -191.5t-138.5 -138.5t-191 -51h-254q-104 0 -191.5 51t-138.5 138.5t-51 191.5v254q0 104 51 191.5t138.5 138.5t191.5 51zM695 670h-369q-26 0 -44.5 -18t-18.5 -44v-445q0 -26 18.5 -44.5
t44.5 -18.5h369q27 0 45.5 18.5t18.5 44.5v445q0 26 -18.5 44t-45.5 18zM627 628v-159l-14 13q-6 6 -14.5 6t-14.5 -6l-16 -14v160h59zM716 163q0 -9 -6 -15t-15 -6h-369q-8 0 -14.5 6t-6.5 15v445q0 8 6.5 14t14.5 6h200v-208q0 -13 12.5 -18.5t22.5 3.5l37 33l35 -33
q6 -6 15 -6q4 0 8 2q13 5 13 19v208h26q9 0 15 -6t6 -14v-445zM716 163zM522 351h-139q-9 0 -15 -6t-6 -14.5t6 -14.5t15 -6h139q9 0 15.5 6t6.5 14.5t-6.5 14.5t-15.5 6zM522 351zM466 244h-83q-9 0 -15 -6t-6 -15t6 -15t15 -6h83q9 0 15 6t6 15t-6 15t-15 6zM466 244z" />
    <glyph glyph-name="uniD642" unicode="&#xd642;" 
d="M384 893h254q103 0 191 -51t139 -138.5t51 -191.5v-254q0 -104 -51 -191.5t-139 -138.5t-191 -51h-254q-103 0 -191 51t-139 138.5t-51 191.5v254q0 104 51 191.5t139 138.5t191 51zM695 622h-50v40h-252v-40h-51q-28 0 -45.5 -20t-17.5 -46v-434q0 -25 17.5 -45
t45.5 -20h353q28 0 45.5 20t17.5 45v434q0 26 -17 46t-46 20zM544 517h113v-26h-113v26zM418 635h201v-52h-201v52zM682 162h-327v26h327v-26zM683 241h-328v26h328v-26zM683 320h-328v26h328v-26zM683 399h-328v26h328v-26zM683 399z" />
    <glyph glyph-name="uniD643" unicode="&#xd643;" 
d="M383 893h254q103 0 191 -51t138.5 -138.5t50.5 -191.5v-254q0 -104 -50.5 -191.5t-138.5 -138.5t-191 -51h-254q-104 0 -191.5 51t-138.5 138.5t-51 191.5v254q0 104 51 191.5t138.5 138.5t191.5 51zM688 625h-58v-10q0 -18 -11 -32.5t-25 -14.5h-172q-15 0 -26 14.5
t-11 32.5v10h-57q-33 0 -45 -16.5t-12 -47.5v-369q0 -64 61 -64h349q70 0 70 64v369q0 29 -16 46.5t-47 17.5zM627 259h-242q-5 0 -10.5 6.5t-5.5 13.5q0 17 16 17h242q11 0 17 -17q0 -8 -5 -14t-12 -6zM644 377q0 -8 -5 -14.5t-12 -6.5h-242q-5 0 -9 6.5t-4 14.5
q0 5 5 10.5t12 5.5h241q6 0 11 -6t3 -10zM644 477q0 -8 -5 -14t-12 -6h-242q-4 0 -8.5 7.5t-4.5 13t5 11t12 5.5h241q6 0 11 -6t3 -11zM456 659h110q10 0 17 -8t7 -18q2 -13 -4 -22t-16 -9h-114q-10 0 -17 8.5t-7 18.5q0 13 7 21.5t17 8.5z" />
    <glyph glyph-name="uniD645" unicode="&#xd645;" 
d="M409 367q-42 3 -84 0q-14 -1 -24 -10t-13 -23q-1 -3 -3 -61h163v52q-1 16 -12.5 28t-26.5 14zM588 400h25h25h49q23 0 22 17q0 17 -21 17q-51 1 -102 0q-10 0 -15.5 -5.5t-4.5 -12.5q2 -16 22 -16zM367 400q21 0 35.5 14.5t14.5 34.5q-1 20 -15 34t-35 14t-35.5 -14
t-14.5 -34.5t14.5 -34.5t35.5 -14zM688 305h-156q-11 0 -14 -6q-9 -11 -5 -17q7 -11 18.5 -11.5t78.5 -0.5v-1q71 0 77 1q22 0 22 16q1 19 -21 19zM641 896h-256q-104 0 -192.5 -51.5t-140 -140t-51.5 -192.5v-256q0 -104 51.5 -192.5t140 -140t192.5 -51.5h256
q104 0 192 51.5t139.5 140t51.5 192.5v256q0 104 -51.5 192.5t-139.5 140t-192 51.5zM805 246q0 -30 -19 -49t-50 -19q-239 -1 -447 0q-31 0 -49.5 18t-18.5 48q-1 140 0 279q0 67 69 68h222h212q16 0 24 -1q57 -8 57 -63v-281zM688 371q-81 1 -156 0q-21 0 -21 -20
q1 -16 23 -16h76h77q22 0 22 17q1 19 -21 19z" />
    <glyph glyph-name="uniD646" unicode="&#xd646;" 
d="M384 893h254q103 0 191 -51t139 -138.5t51 -191.5v-254q0 -104 -51 -191.5t-139 -138.5t-191 -51h-254q-103 0 -191 51t-139 138.5t-51 191.5v254q0 104 51 191.5t139 138.5t191 51zM499 647q-112 0 -190.5 -78t-78.5 -188t78.5 -188t190 -78t190.5 78t79 188h-269v266z
M499 647zM577 655v-201h215q0 83 -63 142t-152 59zM577 655z" />
    <glyph glyph-name="uniD647" unicode="&#xd647;" 
d="M384 894h254q104 0 191.5 -51t138.5 -139t51 -192v-254q0 -103 -51 -191t-138.5 -139t-191.5 -51h-254q-103 0 -190.5 51t-138.5 139t-51 191v254q0 104 51 192t138.5 139t190.5 51zM419 548q0 43 -31 74t-74.5 31t-74.5 -31t-31 -74t30 -74q-8 -31 -8 -65q0 -74 36 -137
t96 -101l22 87q-33 28 -52 67.5t-19 83.5q0 16 3 33q43 1 73 31.5t30 74.5zM510 607q54 0 100 -27q-7 -19 -7 -39q0 -43 31 -74t74.5 -31t75 31t31.5 74.5t-31 74.5t-75 31q-20 0 -39 -8q-72 51 -160 51q-59 0 -113 -24l48 -70q31 11 65 11zM707 400q-2 -53 -30.5 -97
t-74.5 -68q-13 26 -38.5 42t-55.5 16q-44 0 -75 -31t-31 -75t31 -75t75 -31q32 0 58.5 18t39.5 47q82 30 133 102t51 161v19z" />
    <glyph glyph-name="uniD648" unicode="&#xd648;" 
d="M381 889h254q103 0 190.5 -51t138.5 -139t51 -192v-254q0 -103 -51 -191t-138.5 -139t-190.5 -51h-254q-104 0 -191.5 51t-138.5 139t-51 191v254q0 104 51 192t138.5 139t191.5 51zM408 557q16 14 20.5 40.5t-10 46.5t-46.5 13q-40 -7 -43 -49q-2 -37 23 -57t56 6z
M633 536q31 -27 54 3q19 25 7 54q-8 21 -32 26q-26 5 -38 -11.5t-8.5 -38.5t17.5 -33zM420 184q-14 3 -16.5 -13.5t0.5 -35.5t-1 -31q6 -1 23 -2h5q-6 11 -3.5 28t2 34.5t-9.5 19.5zM609 184q-9 -2 -10 -18t2 -32.5t-2 -28.5q4 -4 10 -3q11 1 17 1q-5 12 -1.5 31.5t1 36
t-16.5 13.5zM782 437q-28 38 -64 56q-19 10 -37 12q-65 9 -103 -33q-5 -5 -26.5 -51t-33.5 -48q-3 -1 -19.5 29.5t-37 66t-31.5 43.5q-24 17 -62.5 16t-60.5 -16q-26 -18 -54.5 -62.5t-42.5 -84t-7 -47.5q10 -10 23.5 0t25 23.5t16.5 11.5q4 -1 16 -64.5t32 -125.5t42 -60
q9 0 17.5 0.5t10.5 0.5q-9 12 -15 50t-8.5 69.5t-4.5 32.5q-3 1 -10.5 -7.5t-16 -14.5t-14.5 0q-8 8 16 56.5t49 65.5q14 9 38 9.5t39 -9.5q3 -3 8 -9q5 -3 22 -29.5t29 -26.5q7 -1 14 7q28 50 38 58q14 10 38.5 9.5t38.5 -9.5q25 -17 49 -65.5t16 -56.5q-6 -6 -14.5 0
t-16 14.5t-10.5 7.5q-2 -1 -4.5 -32.5t-8.5 -69t-15 -50.5q3 1 7 0.5t11.5 -1t15.5 -0.5q55 -3 73 273q10 -2 29 -39q16 -29 24 -22q5 4 9 17q7 22 -3 52t-27 53zM445 384q-26 -22 -42 5q-15 23 -2 44q8 11 22 14q20 4 29 -8.5t6.5 -29t-13.5 -25.5zM583 384
q-10 9 -12.5 25.5t6.5 29t29 8.5q29 -6 27 -37q-2 -27 -22 -34q-13 -4 -28 8z" />
    <glyph glyph-name="uniD649" unicode="&#xd649;" 
d="M619 562l-107 -117v-234l224 234q24 25 24 59t-24 58.5t-58.5 24.5t-58.5 -25zM640 896h-256q-104 0 -192.5 -51.5t-139.5 -140t-51 -192.5v-256q0 -104 51 -192.5t139.5 -140t192.5 -51.5h256q104 0 192.5 51.5t139.5 140t51 192.5v256q0 104 -51 192.5t-139.5 140
t-192.5 51.5zM795 387l-283 -293l-283 293q-48 48 -48 117t48.5 117.5t117 48.5t117.5 -49l48 -59l48 59q49 49 117.5 49t117 -48.5t48.5 -117.5t-48 -117z" />
    <glyph glyph-name="uniD650" unicode="&#xd650;" 
d="M385 892h254q103 0 190.5 -51t138.5 -139t51 -191v-254q0 -104 -51 -192t-138.5 -139t-190.5 -51h-254q-104 0 -191.5 51t-138.5 139t-51 192v254q0 103 51 191t138.5 139t191.5 51zM621 596q-43 0 -74 -30l-66 -67q-8 -7 0 -14q3 -3 7 -3t7 3l67 66q24 25 58.5 25
t59.5 -25q7 -7 14.5 0.5t0.5 14.5q-31 30 -74 30v0zM621 596zM324 373q-36 -36 -36 -88t36.5 -88.5t88.5 -36.5t88 37l97 96l-177 176zM324 373zM408 120q-67 0 -114 47t-47 113t47 113l208 208q47 46 114 46q66 0 113 -46q47 -47 47 -113.5t-47 -112.5l-208 -208
q-47 -47 -113 -47v0zM616 618q-55 0 -93 -38l-208 -208q-39 -38 -39 -92t38.5 -92.5t93 -38.5t92.5 38l208 208q39 38 39 92.5t-38.5 92.5t-92.5 38zM616 618z" />
    <glyph glyph-name="uniD651" unicode="&#xd651;" 
d="M385 892h253q104 0 191.5 -51t138.5 -138.5t51 -191.5v-254q0 -104 -51 -191.5t-138.5 -138.5t-191.5 -51h-253q-104 0 -191.5 51t-138.5 138.5t-51 191.5v254q0 104 51 191.5t138.5 138.5t191.5 51zM393 521q-8 0 -13 5.5t-5 13.5v91q0 7 5 12.5t12.5 5.5t13 -5.5
t5.5 -12.5v-91q0 -8 -5.5 -13.5t-12.5 -5.5zM393 521zM641 520q-7 0 -12.5 5.5t-5.5 12.5v91q0 8 5.5 13.5t13 5.5t12.5 -5.5t5 -13.5v-91q0 -7 -5 -12.5t-13 -5.5zM641 520zM584 576h-141q-8 0 -13 5.5t-5 13t5 12.5t13 5h141q8 0 13.5 -5t5.5 -12.5t-5.5 -13t-13.5 -5.5z
M584 576zM752 614h-62q-8 0 -13 -5.5t-5 -13t5 -13t13 -5.5h50v-139h-456h-1v139h60q8 0 13.5 5.5t5.5 13t-5.5 13t-13.5 5.5h-72q-10 0 -17.5 -7.5t-7.5 -17.5v-445q0 -10 7.5 -17.5t17.5 -7.5h481q10 0 17.5 7.5t7.5 17.5v445q0 10 -7.5 17.5t-17.5 7.5zM687 330
q0 -15 -10 -25.5t-25 -10.5t-25.5 10.5t-10.5 25t10.5 25t25.5 10.5t25 -10.5t10 -24.5zM366 182q-15 0 -25.5 10.5t-10.5 25.5t10.5 25.5t25.5 10.5t25 -10.5t10 -25.5t-10 -25.5t-25 -10.5zM366 294q-15 0 -25.5 10.5t-10.5 25t10.5 25t25.5 10.5t25 -10.5t10 -25t-10 -25
t-25 -10.5zM508 182q-15 0 -25.5 10.5t-10.5 25.5t10.5 25.5t25.5 10.5t25.5 -10.5t10.5 -25.5t-10.5 -25.5t-25.5 -10.5zM508 294q-15 0 -25.5 10.5t-10.5 25t10.5 25t25.5 10.5t25.5 -10.5t10.5 -25t-10.5 -25t-25.5 -10.5zM708 241l-57 -57q-5 -5 -11.5 -5t-11.5 5
l-33 33q-5 4 -5 11t5 12t12 5t12 -5l20 -21l46 46q5 5 12 5t11.5 -5t4.5 -12t-5 -12zM708 241z" />
    <glyph glyph-name="uniD652" unicode="&#xd652;" 
d="M384 894h254q104 0 191.5 -51t138.5 -139t51 -191v-255q0 -103 -51 -191t-138.5 -139t-191.5 -51h-254q-103 0 -190.5 51t-138.5 139t-51 191v255q0 103 51 191t138.5 139t190.5 51zM487 411q35 14 68 -1q7 -2 13.5 0.5t9 9t0 12.5t-9.5 9q-46 20 -94 0q-47 -19 -66 -66
q-4 -10 3 -18q3 -3 6 -4q6 -2 12.5 0.5t9.5 8.5q14 34 48 49zM487 411zM481 337q7 16 23 22.5t32 -0.5q6 -3 12.5 -0.5t9.5 9.5q2 6 -0.5 12.5t-8.5 9.5q-29 11 -58 0q-29 -12 -41 -40q-4 -11 4 -19q2 -2 5 -3q7 -3 13 -0.5t9 9.5zM481 337zM627 612q-34 0 -64.5 -16
t-51.5 -44q-45 61 -116 61q-61 0 -105 -48t-44 -115q0 -24 7.5 -48t14.5 -37.5t20 -33.5q-12 -28 10 -49l23 -24q14 -13 32.5 -13t31.5 13l16 16q13 13 13 32t-13 32l-23 24q-14 13 -32.5 13t-31.5 -13l-1 -1l-2 -2q-32 50 -32 91q0 52 34 89t82 37q35 0 64 -21t42 -54
q2 -8 10 -8t10 8q13 34 42 54.5t64 20.5q48 0 82 -37t34 -89q0 -27 -9.5 -49t-28.5 -52q-9 -14 -37 -44q-15 -15 -26 -23.5t-14 -10.5l-4 -1q-13 36 -41 50q-24 13 -52.5 9t-48.5 -24q-25 -25 -25 -60.5t24 -60.5q26 -25 61.5 -25.5t60.5 25.5q18 18 23 40h1q6 5 17.5 13
t39 34.5t47.5 54.5q1 2 2 3q14 21 20.5 33.5t14.5 37.5t8 50q0 67 -43.5 114.5t-105.5 47.5zM321 322l16 16q8 8 17 0l24 -24q8 -8 0 -16l-16 -16q-9 -9 -17 0l-24 23q-8 9 0 17zM580 207q-16 -15 -37.5 -15t-37.5 15q-15 15 -15 37t15 37t37 15.5t38 -15.5q15 -15 15 -36.5
t-15 -37.5zM580 207z" />
    <glyph glyph-name="uniD653" unicode="&#xd653;" 
d="M385 893h254q103 0 190.5 -51t138.5 -139t51 -191v-254q0 -104 -51 -192t-138.5 -139t-190.5 -51h-254q-104 0 -191.5 51t-138.5 139t-51 192v254q0 103 51 191t138.5 139t191.5 51zM376 594h-147v-384h180v-88h245v145h140v244h-118v83h-149v53h-149v-53h-2zM676 244
h114l-114 -117v117zM427 620h51v-24h-51v24zM430 491h344v-1v-202h-140q-1 0 -1 -1v-145h-203v1v347v1zM287 560h331v-26h-331v26z" />
    <glyph glyph-name="uniD654" unicode="&#xd654;" 
d="M640 896h-256q-159 0 -271.5 -112.5t-112.5 -271.5v-256q0 -159 112.5 -271.5t271.5 -112.5h256q159 0 271.5 112.5t112.5 271.5v256q0 159 -112.5 271.5t-271.5 112.5zM448 178q-22 -21 -49 -14q-10 3 -14.5 12t-0.5 19q1 4 6 17q-2 -1 -8 -2.5t-9 -2t-7.5 -0.5
t-8.5 1.5t-8 4.5q-3 2 -4.5 4.5t-2.5 6t-1.5 5t0.5 6t1.5 5.5t2 6.5t1.5 6.5q-1 -1 -6 -3t-7 -2.5t-6 -1t-6.5 0t-6 2.5t-6.5 5q-6 6 -6.5 14t0.5 11t5 14q-1 0 -10 -4q-16 -7 -27 3t-9 25q4 28 27 42q18 12 36 1q16 -10 14 -31v-6q1 -1 4 0q17 3 27.5 -7.5t8.5 -27.5
q-1 -4 0 -5t6 -1q16 1 26 -10.5t6 -28.5v-2q-1 -1 -0.5 -2.5t3.5 -0.5q26 3 36 -17q5 -10 3 -22t-10 -21zM693 301q-8 -15 -31 -11q-9 1 -22 13q-3 4 -13 13.5t-15 14.5q-4 4 -6 2q-3 -2 1 -7q2 -2 8 -9t8.5 -10t8 -8t10.5 -8q16 -10 9 -31q-7 -19 -28 -16q-17 2 -26 13
q-19 21 -38 37q-5 4 -7 3q0 -4 6 -11q8 -9 30 -31q7 -7 9 -13q7 -21 -9 -32q-7 -5 -17 -4.5t-17 7.5q-7 8 -36 40q-4 4 -7 6q-3 3 -5 1q-4 -3 -1 -7q2 -3 4 -5q18 -19 26 -27q9 -10 10 -20q1 -18 -12 -25q-16 -9 -30 2q-3 2 -8 7t-6 7q-2 2 -2 6q2 22 -8.5 39.5t-29.5 25.5
q-4 2 -6 7q-11 28 -36 36q-4 2 -6 6q-8 26 -33 34q-5 2 -6 6q-15 40 -55 41q-39 2 -59 -32q-5 -9 -7.5 -10t-11.5 2q-2 1 -6.5 2t-7.5 2.5t-5 3.5q-1 2 -1.5 5t0 8t0.5 7v184v8q47 -17 57 -20q28 -11 50 -2q1 0 26 15q43 25 71 35q40 14 73 -11q7 -5 -1 -9q-41 -22 -70 -42
q-18 -12 -26 -31t-3 -38q7 -25 30.5 -39t52.5 -1q12 6 35.5 16.5t26.5 11.5q25 11 44 -9l1 -1l1 -1l1 -1l1 -1l1 -1l1 -1l1 -1l1 -1l1 -1l1 -1l1 -1l1 -1l1 -1l1 -1l1 -1l1 -1l1 -1l1 -1l1 -1l1 -1l1 -1l1 -1l1 -1l1 -1l1 -1l1 -1l1 -1l1 -1l1 -1l1 -1l1 -1l1 -1l1 -1l1 -1
l1 -1l1 -1l1 -1l1 -1l1 -1l1 -1l1 -1l1 -1l1 -1l1 -1l1 -1l1 -1l1 -1l1 -1l1 -1l1 -1l1 -1l1 -1l1 -1l1 -1l1 -1l1 -1l1 -1l1 -1l1 -1l1 -1l1 -1l1 -1l1 -1l1 -1l1 -1l1 -1l1 -1l1 -1l1 -1l1 -1v-1l1 -1l1 -1l2 -1l1 -1l1 -1l1 -1l1 -1l1 -1l1 -1l1 -1l1 -1l1 -1l1 -1l1 -1
l1 -1l1 -1l1 -1l1 -1l1 -1l1 -1l1 -1l1 -1l1 -1l1 -1l1 -1l1 -1l1 -1l1 -1l1 -1l1 -1l1 -1l1 -1l1 -1l1 -1l1 -1l1 -1l1 -1l1 -1l1 -1l1 -1l1 -1l1 -2q16 -16 5 -34zM809 363q-25 -4 -46 -10q-28 -7 -49 15q-18 19 -58.5 59.5t-60.5 61.5q-21 21 -46 9q-10 -5 -63 -33
q-17 -9 -32 -14q-14 -4 -26.5 1.5t-17.5 18.5q-6 13 -1 26.5t18 18.5q10 4 20.5 10t23 13.5t19.5 11.5q3 1 36 19t49 28q30 16 55 -5l64 -54q15 -13 33 -8q49 11 81 19q8 2 8 -6v-27v-32v-27v-87q0 -7 -7 -8z" />
    <glyph glyph-name="uniD655" unicode="&#xd655;" 
d="M383 893h254q103 0 191 -51t138.5 -138.5t50.5 -191.5v-254q0 -104 -50.5 -191.5t-138.5 -138.5t-191 -51h-254q-103 0 -191 51t-139 138.5t-51 191.5v254q0 104 51 191.5t139 138.5t191 51zM664 514h-44q18 0 31 12.5t13 30.5v43q0 18 -13 30.5t-31 12.5h-220
q-19 0 -32 -12.5t-13 -30.5v-43q0 -18 13 -30.5t32 -12.5h-45q-18 0 -31 -12.5t-13 -30.5v-301q0 -18 13 -30.5t31 -12.5h309q19 0 31.5 12.5t12.5 30.5v301q0 18 -12.5 30.5t-31.5 12.5zM576 256h-45v-43q0 -9 -6 -15t-15 -6t-15.5 6t-6.5 15v43h-44q-9 0 -15.5 6.5
t-6.5 15.5t6.5 15t15.5 6h44v43q0 9 6.5 15.5t15.5 6.5t15 -6.5t6 -15.5v-43h45q9 0 15.5 -6t6.5 -15t-6.5 -15.5t-15.5 -6.5zM671 406h-322v65h322v-65z" />
    <glyph glyph-name="uniD656" unicode="&#xd656;" 
d="M384 894h254q104 0 191.5 -51t138.5 -139t51 -191v-255q0 -103 -51 -191t-138.5 -139t-191.5 -51h-254q-103 0 -190.5 51t-138.5 139t-51 191v255q0 103 51 191t138.5 139t190.5 51zM781 486q0 3 0.5 8.5t0 7.5t-1 5.5t-1.5 4.5t-3 2.5t-5.5 2t-8.5 0.5
q-155 -120 -168 -136v117q0 10 -7 16.5t-17 6.5h-328q-10 0 -17 -6.5t-7 -16.5v-282q0 -9 7 -16t17 -7h328q10 0 17 7t7 16v116q13 -14 168 -137q5 0 8.5 0.5t5.5 1.5t3 2t1.5 4t0.5 5v6v10v262z" />
    <glyph glyph-name="uniD657" unicode="&#xd657;" 
d="M99 -20v6q2 120 71 219t181 143q-51 35 -79.5 90t-28.5 117q0 104 74 178t178 74t178 -74t74 -178q0 -62 -28.5 -117t-79.5 -90q112 -44 180.5 -143t70.5 -219v-6h-72v6q-2 118 -81.5 208t-196.5 107h-3q-17 3 -40 3q-4 0 -7.5 -0.5t-7.5 -0.5h-6h-6q-2 0 -4 -0.5
t-4 -0.5h-3h-2h-1q-120 -14 -202 -104.5t-84 -211.5v-6h-71zM495 744q-78 0 -133.5 -55.5t-55.5 -134t55.5 -133.5t133.5 -55t133.5 55t55.5 133.5t-55.5 134t-133.5 55.5z" />
    <glyph glyph-name="uniD658" unicode="&#xd658;" 
d="M951 391l-416 416q-10 9 -23 9t-23 -9l-416 -416q-9 -10 -9 -23t9.5 -22.5t22.5 -9.5t23 9l393 394l256 -257v-1v-1v-480h-512v320q0 13 -9.5 22.5t-22.5 9.5t-22.5 -9.5t-9.5 -22.5v-352q0 -13 9.5 -22.5t22.5 -9.5h576q13 0 22.5 9.5t9.5 22.5v451l73 -74q10 -9 23 -9
t22.5 9.5t9.5 22.5t-9 23z" />
    <glyph glyph-name="uniD659" unicode="&#xd659;" 
d="M737.5 355q-83.5 0 -142.5 -59t-59 -142t59 -142t142.5 -59t142.5 59t59 142t-59 142t-142.5 59zM737.5 13q-58.5 0 -100.5 41.5t-42 100t42 100t100.5 41.5t100.5 -41.5t42 -100t-42 -100t-100.5 -41.5zM814 237l-177 -51q-11 -3 -12 -15t11 -17l75 -32q6 -3 9 -9
l33 -75q4 -11 16 -10.5t16 12.5l50 176q3 10 -4.5 17t-16.5 4zM557 7h-411q11 122 102 205.5t215 83.5h10q4 0 8 1q102 7 172.5 82.5t70.5 178.5q0 108 -76.5 185t-184.5 77t-185 -77t-77 -185q0 -71 35.5 -131t94.5 -95q-109 -41 -177.5 -137.5t-68.5 -216.5q0 -12 9 -21
t21 -9h442q13 0 21.5 9t8.5 21t-8.5 20.5t-21.5 8.5zM260 558q0 84 59.5 143.5t143.5 59.5t143 -59.5t59 -143.5t-59 -143.5t-143 -59.5t-143.5 59.5t-59.5 143.5z" />
    <glyph glyph-name="uniD660" unicode="&#xd660;" 
d="M512 805q-120 0 -221 -51.5t-160 -139.5t-59 -192q0 -95 51 -178t138 -137v-118q0 -12 7 -19t17 -7q6 0 13 3l120 80q38 -8 92 -8q120 0 221.5 51.5t160 139.5t58.5 192q1 104 -57.5 192.5t-159.5 140t-221 51.5zM512 102q-36 0 -82 8l-12 4q-12 2 -24 -5l-12 -8l-57 -39
v63q0 19 -16 27l-16 10q-74 44 -116.5 113t-42.5 146q0 86 50.5 159.5t137 116t189 42.5t189 -42.5t136.5 -116t50 -159.5q1 -86 -49 -159.5t-137 -116.5t-188 -43zM262 411q0 -22 15.5 -37.5t37.5 -15.5t37.5 15.5t15.5 37.5t-15.5 37.5t-37.5 15.5t-37.5 -15.5
t-15.5 -37.5zM462 411q0 -22 15.5 -37.5t37.5 -15.5t37.5 15.5t15.5 37.5t-15.5 37.5t-37.5 15.5t-37.5 -15.5t-15.5 -37.5zM656 411q0 -22 15.5 -37.5t37.5 -15.5t37.5 15.5t15.5 37.5t-15.5 37.5t-37.5 15.5t-37.5 -15.5t-15.5 -37.5z" />
    <glyph glyph-name="uniD661" unicode="&#xd661;" 
d="M674 338q21 48 21 100t-21 100q-19 46 -54.5 82t-82.5 55q-47 20 -99.5 20t-100.5 -20q-46 -19 -81.5 -55t-55.5 -82q-20 -48 -20 -100t20 -100q20 -46 55.5 -81.5t81.5 -55.5q48 -20 100.5 -20t99.5 20t82.5 55.5t54.5 81.5zM650 438q0 -88 -62.5 -150t-150.5 -62
t-150 62t-62 150t62 150.5t150 62.5t150.5 -62.5t62.5 -150.5zM794 168l-108 112l-33 -31l109 -112q5 -5 5 -12t-4.5 -12t-11.5 -5t-12 5l-113 109l-31 -32l112 -109q18 -18 43.5 -18t43.5 18t18 43.5t-18 43.5zM359 522l-32 32l-2 -3q-47 -47 -47 -113t47 -113l2 -2l32 31
l-3 3q-33 34 -33 81.5t33 80.5z" />
    <glyph glyph-name="uniD662" unicode="&#xd662;" 
d="M516 829q-90 0 -172 -35t-141 -94t-94 -141t-35 -172t35 -171.5t94 -141t141 -94.5t172 -35t171.5 35t141 94.5t94.5 141t35 171.5t-35 172t-94.5 141t-141 94t-171.5 35zM736 219l-52 -52l-168 168l-169 -168l-52 52l169 168l-169 168l52 53l169 -169l168 169l52 -53
l-168 -168z" />
    <glyph glyph-name="uniD663" unicode="&#xd663;" horiz-adv-x="1026" 
d="M641 896h-256q-105 0 -193.5 -51.5t-140 -140t-51.5 -192.5v-256q0 -104 51.5 -192.5t140 -140t193.5 -51.5h256q105 0 193.5 51.5t140 140t51.5 192.5v256q0 104 -51.5 192.5t-140 140t-193.5 51.5zM822 608v-563q0 -11 -8 -19.5t-19 -8.5h-565q-11 0 -19 8.5t-8 19.5
v563q0 12 8 20t19 8h75v15q0 7 5 12t12 5h87q7 29 28 51q32 31 76 31t75 -31q21 -22 29 -51h87q7 0 11.5 -5t4.5 -12v-15h75q11 0 19 -8t8 -20v0zM688 582v53h-350v-53h175h175zM583 668q-6 15 -18 27q-21 22 -52 22t-53 -22q-12 -12 -17 -27h140zM720 566q0 -7 -4.5 -12
t-11.5 -5h-382q-7 0 -12 5t-5 12v15h-47v-508h510v508h-48v-15zM603 274h-63v-63q0 -12 -8 -20t-19 -8t-19 8t-8 20v63h-63q-12 0 -19.5 8t-7.5 20t7.5 19.5t19.5 7.5h63v64q0 12 7.5 20t19 8t19.5 -8t8 -20v-64h63q11 0 19 -8t8 -19t-8 -19.5t-19 -8.5z" />
    <glyph glyph-name="uniD664" unicode="&#xd664;" 
d="M267 -128q-109 0 -186 77l-4 4q-77 76 -77 185.5t77 186.5l93 87q12 11 29 10.5t28.5 -12.5t10.5 -29t-13 -28l-92 -86q-52 -52 -52 -128t53 -130l4 -4q53 -53 129 -53t129 54l201 200q55 55 57 128.5t-50 125.5l-4 3q-16 17 -36 23q-16 4 -24.5 18.5t-3.5 30.5t19.5 24
t30.5 4q40 -12 71 -43l4 -4q76 -75 73.5 -181.5t-80.5 -184.5l-201 -201q-77 -77 -186 -77zM394 250q-17 0 -28 12q-77 76 -75.5 176.5t79.5 179.5l201 200q77 77 186 77t186 -77l4 -3q77 -77 76.5 -186.5t-76.5 -185.5l-95 -87q-12 -12 -28.5 -11t-28 13t-10.5 28.5
t13 28.5l93 86q52 52 52 127.5t-53 129.5l-4 4q-53 53 -129 53t-129 -53l-201 -201q-54 -55 -55.5 -122.5t50.5 -119.5q12 -12 12 -28.5t-11.5 -28.5t-28.5 -12z" />
    <glyph glyph-name="uniD665" unicode="&#xd665;" horiz-adv-x="1026" 
d="M641 896h-256q-105 0 -193.5 -51.5t-140 -140t-51.5 -192.5v-256q0 -104 51.5 -192.5t140 -140t193.5 -51.5h256q105 0 193.5 51.5t140 140t51.5 192.5v256q0 104 -51.5 192.5t-140 140t-193.5 51.5zM575 137h-371v72q0 20 11 36t20.5 21t11.5 5l85 41v32q-27 22 -42 78
q-7 5 -9.5 6.5t-7 14.5t-5.5 37q-1 10 3 15t5 5h5v43q0 32 15 41v5q0 3 4.5 11t12.5 14t26.5 11.5t44.5 5.5h1q87 0 101 -65q1 -6 1 -23v-43q14 2 13 -20q0 -24 -4.5 -37t-7 -14.5t-10.5 -6.5q-7 -25 -17.5 -44.5t-17.5 -26.5l-7 -7l-1 -32l87 -41q2 0 5.5 -1.5t12.5 -7
t16 -13t13 -21t6 -29.5v-62zM822 137h-216v84q0 12 -4.5 20.5t-8.5 11.5t-13 7.5t-12 6.5l48 26v25q-32 28 -46 79l-6 2q-5 2 -6 4.5t-3.5 12t-2.5 26.5q-1 9 2.5 14t6.5 6h3v1v3v6v11v16q0 29 14 37v1q1 0 -0.5 4t3 10.5t11 12.5t23.5 10.5t40 4.5h1q77 0 88 -59
q1 -4 1 -21v-37h3q3 -1 6.5 -6t3.5 -14q-1 -14 -2 -22.5t-3 -12.5t-3 -5.5t-4.5 -2.5t-4.5 -2q-6 -23 -18 -42.5t-21 -28.5l-9 -8v-25l90 -42q0 1 4 -1t9.5 -6.5t11.5 -10.5t10 -16.5t4 -22.5v-57z" />
    <glyph glyph-name="uniD666" unicode="&#xd666;" 
d="M806 -77h-5h-598q-48 0 -75 31q-29 33 -24 85v359h64v-364v-1q-3 -24 8 -37q8 -9 27 -9h601q22 -1 35 12q13 12 13 39v361h64v-361q0 -56 -33 -87q-31 -28 -77 -28zM136 368h-98q-22 0 -30 21t9 35l472 419q9 8 21 8t21 -7l479 -416q16 -15 9 -35.5t-29 -20.5l-105 -3h-1
q-13 0 -22.5 9t-9.5 22t9 22.5t22 10.5h23l-396 344l-388 -345h14q14 0 23 -9t9 -22.5t-9 -23t-23 -9.5zM403 -45q-11 0 -19 8t-8 19v226q0 23 20 44q34 35 115 35q79 0 114 -36q20 -21 20 -46v-222q0 -12 -8 -19.5t-19 -7.5t-19 7.5t-8 19.5v222q-1 5 -8 11q-20 17 -72 17
q-58 0 -76 -19q-4 -4 -5 -7v-225q0 -11 -8 -19t-19 -8z" />
    <glyph glyph-name="uniD667" unicode="&#xd667;" 
d="M517 480h-223q-13 0 -22 -9t-9 -22t9 -22t22 -9h223q12 0 21 9.5t9 22t-9 21.5t-21 9zM517 383h-223q-13 0 -22 -9t-9 -22t9 -22t22 -9h223q12 0 21 9t9 22t-9 22t-21 9zM640 896h-256q-159 0 -271.5 -112.5t-112.5 -271.5v-256q0 -159 112.5 -271.5t271.5 -112.5h256
q159 0 271.5 112.5t112.5 271.5v256q0 159 -112.5 271.5t-271.5 112.5zM369 186q-57 -53 -130 -53l-35 1l16 27q22 39 26 75q-42 31 -64 74.5t-22 91.5q0 90 70.5 154t170.5 64t171 -64t71 -154q0 -64 -37 -117t-101 -80t-136 -19zM734 163q0 -19 7 -42.5t14 -37.5l7 -13
q-31 -1 -61 11.5t-43 22.5t-22 20q-21 -3 -39 -3q-90 0 -155 56q18 -2 24 -2q93 0 158 58.5t65 140.5q0 86 -70 145q85 -8 143 -64.5t58 -134.5q0 -47 -23 -88t-63 -69z" />
    <glyph glyph-name="uniD668" unicode="&#xd668;" 
d="M922 -128h-820q-42 0 -72 30t-30 72v820q0 42 30 72t72 30h581q14 0 24 -10t10 -24t-10 -24t-24 -10h-581q-14 0 -24 -10t-10 -24v-820q0 -14 10 -24t24 -10h820q14 0 24 10t10 24v308q0 14 10 24t24 10t24 -10t10 -24v-308q0 -42 -30 -72t-72 -30zM497 229
q-15 -15 -36.5 -15t-36.5 15t-15 36.5t15 36.5l511 511q16 16 37 16t36.5 -15.5t15.5 -36.5t-16 -37z" />
    <glyph glyph-name="uniD669" unicode="&#xd669;" 
d="M640 895h-256q-104 0 -192.5 -51.5t-140 -139.5t-51.5 -192v-256q0 -104 51.5 -192t140 -139.5t192.5 -51.5h256q104 0 192.5 51.5t140 139.5t51.5 192v256q0 104 -51.5 192t-140 139.5t-192.5 51.5zM409.5 662q18.5 0 31.5 -13t13 -31.5t-13 -31.5t-31.5 -13t-31.5 13
t-13.5 31.5t13 31.5t32 13zM470 496v-389h-44v244h-34v-244h-43v389q-38 13 -67 41q-52 53 -52 126q0 7 4.5 11.5t11 4.5t11 -4.5t4.5 -11.5q0 -60 43.5 -103t104.5 -43t104.5 43t43.5 103q0 7 4.5 11.5t11 4.5t11.5 -4.5t5 -11.5q0 -74 -53 -126q-28 -28 -66 -41zM761 122
q-33 -33 -80 -33t-80.5 33t-33.5 80q0 26 12 50q10 20 28 35v305q0 30 21.5 51.5t52 21.5t52.5 -21.5t22 -51.5v-305q17 -15 27 -35q12 -24 12 -50q0 -47 -33 -80zM732 270l-5 4v245h-36v18h36v35h-56v17h56v3q0 19 -13.5 32.5t-32.5 13.5t-33 -13.5t-14 -32.5v-318l-5 -4
q-16 -12 -25 -30t-9 -38q0 -36 25 -61t61 -25q35 0 60.5 25t25.5 61q0 20 -9 38t-26 30zM680.5 153q-20.5 0 -35 14.5t-14.5 34.5q0 25 20 40v236q0 12 8.5 21t21 9t21.5 -9t9 -21v-11h-34v-18h34v-35h-13v-18h13v-154q20 -15 20 -40q0 -20 -15 -34.5t-35.5 -14.5z" />
    <glyph glyph-name="uniD670" unicode="&#xd670;" 
d="M43 -125q-2 0 -2 3v904q0 3 2 3h361q1 0 2 -0.5t0 -2.5v-8q-1 -8 -1 -13t1 -14v-7q1 -2 0 -2.5t-2 -0.5h-314v-813h726v400q0 1 1 2t2 1h5h3q8 -1 13.5 -1t13.5 1h4h4q1 0 2 -1t1 -2v-446q0 -3 -3 -3h-819zM184 125q-3 0 -3 3v43q0 3 3 3h516q3 0 3 -3v-43q0 -3 -3 -3
h-516zM184 306q-3 0 -3 3v43q0 3 3 3h236q3 0 3 -3v-43q0 -3 -3 -3h-236zM711.5 349q-112.5 0 -192.5 79.5t-80 192t80 192.5t192.5 80t192 -80t79.5 -192.5t-79.5 -192t-192 -79.5zM711.5 844q-92.5 0 -158 -65.5t-65.5 -157.5t65.5 -157.5t158 -65.5t157.5 65.5t65 157.5
t-65 157.5t-157.5 65.5zM184 486q-3 0 -3 3v43q0 3 3 3h193q3 0 3 -3v-43q0 -3 -3 -3h-193zM674 570q-3 0 -3 2v151q0 3 3 3h43q3 0 3 -3v-105h83q3 0 3 -2v-44q0 -2 -3 -2h-129zM711.5 890q111.5 0 190.5 -79t79 -190t-79 -190t-190.5 -79t-190.5 79t-79 190t79 190
t190.5 79zM711.5 395q93.5 0 159.5 66t66 159.5t-66 160t-159.5 66.5t-160 -66t-66.5 -160t66.5 -160t160 -66zM404 782q-1 -1 -1.5 -9t-0.5 -12t0.5 -12t1.5 -10h-317v-818h732v403q1 0 9 -0.5t12.5 -0.5t12.5 0.5t9 0.5v-446h-819v904h361zM717 723v-107h86v-44h-129v151
h43zM377 532v-43h-193v43h193zM420 352v-43h-236v43h236zM700 171v-43h-516v43h516zM711 896q-113 0 -194 -80.5t-81 -194.5t81 -194.5t194.5 -80.5t194 80.5t80.5 194.5t-80.5 194.5t-194.5 80.5zM711 401q-91 0 -155.5 64.5t-64.5 155.5t64.5 155.5t155.5 64.5t156 -64.5
t65 -155.5t-65 -155.5t-156 -64.5zM404 788h-361q-5 0 -5 -6v-904q0 -6 5 -6h819q6 0 6 6v446q0 3 -2 4q-2 2 -4 2t-4.5 -0.5t-3.5 -0.5h-14h-13q-1 0 -3.5 0.5t-4.5 0.5t-4 -1.5t-2 -4.5v-397h-721v807h312q2 0 4 1.5t1 4.5v8q-1 9 -1 13t1 13v8q1 3 -1 4q-2 2 -4 2z
M717 729h-43q-6 0 -6 -6v-151q0 -5 6 -5h129q6 0 6 5v44q0 5 -6 5h-81v102q0 6 -5 6zM377 538h-193q-6 0 -6 -6v-43q0 -6 6 -6h193q6 0 6 6v43q0 6 -6 6zM420 358h-236q-6 0 -6 -6v-43q0 -6 6 -6h236q6 0 6 6v43q0 6 -6 6zM700 177h-516q-6 0 -6 -6v-43q0 -6 6 -6h516
q6 0 6 6v43q0 6 -6 6z" />
    <glyph glyph-name="uniD671" unicode="&#xd671;" 
d="M967 -25l-8 -8q-6 -6 -15 -6t-16 6l-228 228q-106 -95 -248 -95q-101 0 -186.5 49.5t-135 135t-49.5 186.5t49.5 186.5t135 135.5t186.5 50t186.5 -50t135 -135.5t49.5 -186.5q0 -134 -85 -237l229 -228q6 -7 6 -16t-6 -15zM769 471q0 131 -93 224t-224 93t-224 -93
t-93 -224t93 -224t224 -93t224 93t93 224zM419 665q-62 -10 -106 -54.5t-55 -106.5q0 -1 -1 -5q-7 -28 -29 -28q-11 0 -18.5 7.5t-7.5 18.5q0 3 1 8t1 7q13 76 65.5 131.5t126.5 72.5q12 3 20 2q11 -1 18 -8.5t7 -16.5q-1 -11 -6.5 -18t-10.5 -9z" />
    <glyph glyph-name="uniD679" unicode="&#xd679;" 
d="M512 401q-70 0 -119.5 49.5t-49.5 119.5t49.5 119.5t119.5 49.5t119.5 -49.5t49.5 -119.5t-49.5 -119.5t-119.5 -49.5zM512 700q-54 0 -92 -38t-38 -91.5t38 -91.5t92 -38t92 38t38 91.5t-38 91.5t-92 38zM512 29q-74 0 -136.5 13t-104.5 43t-42 73q0 117 83 200t200 83
t200 -83t83 -200q0 -43 -42 -73t-104.5 -43t-136.5 -13zM512 401q-101 0 -172.5 -71.5t-71.5 -171.5q0 -38 70.5 -64t173.5 -26t173.5 26t70.5 64q0 100 -71.5 171.5t-172.5 71.5z" />
    <glyph glyph-name="uniD682" unicode="&#xd682;" 
d="M512 794h-273q-61 0 -99 -38t-38 -99v-568q0 -11 2 -22.5t10.5 -29t22.5 -30.5t41 -23t64 -10h680v820h-410zM478 759v-326l-84 76l-93 -78v328h177zM239 759h28v-401l126 106l119 -108v403h375v-563h-648q-65 0 -102 -35v496q0 47 27.5 74.5t74.5 27.5zM242 8
q-97 0 -105 70q0 39 27 61.5t75 22.5h648v-154h-645z" />
    <glyph glyph-name="uniD702" unicode="&#xd702;" 
d="M512 272q69 0 118.5 49t49.5 119v224q0 69 -49.5 118t-118.5 49t-118.5 -49t-49.5 -118v-224q0 -70 49.5 -119t118.5 -49zM820 426q0 17 -12.5 29.5t-30 12.5t-29.5 -12.5t-12 -29.5q0 -93 -65.5 -158.5t-158.5 -65.5t-158.5 65.5t-65.5 158.5q0 17 -12 29.5t-29.5 12.5
t-30 -12.5t-12.5 -29.5q0 -116 76.5 -202.5t189.5 -101.5v-101h-140q-17 0 -29.5 -12.5t-12.5 -30t12.5 -29.5t29.5 -12h364q17 0 29.5 12t12.5 29.5t-12.5 30t-29.5 12.5h-140v101q113 15 189.5 101.5t76.5 202.5zM820 426z" />
    <glyph glyph-name="uniE600" unicode="&#xe600;" 
d="M660 279q50 37 78.5 91.5t28.5 118.5q0 107 -76.5 183.5t-184 76.5t-183.5 -76.5t-76 -183.5q0 -64 29 -119.5t79 -91.5q-117 -47 -190 -151.5t-73 -234.5q0 -16 11.5 -27.5t27.5 -11.5t27.5 11.5t11.5 27.5q0 91 45 168.5t122.5 123t169.5 45.5h3h1h1h2
q91 0 168.5 -45.5t122.5 -123t45 -168.5q0 -16 11.5 -27.5t27.5 -11.5t27.5 11.5t11.5 27.5q0 131 -74.5 236.5t-193.5 150.5zM325 488.5q0 75.5 53 129t128.5 53.5t129 -53.5t53.5 -129t-53.5 -128.5t-129 -53t-128.5 53t-53 128.5z" />
    <glyph glyph-name="uniE601" unicode="&#xe601;" 
d="M863 862h-701q-11 0 -21 -1t-31 -8t-36 -19t-27.5 -38t-12.5 -62v-701q0 -35 13.5 -61.5t32 -38.5t37.5 -19t32 -8h13h701q20 0 37.5 4t30 11.5t22 17t16 20t11 21.5t6.5 20.5t3 16.5t1 12v4v701q0 36 -12 62t-27 38t-36.5 19t-31 8t-20.5 1zM927 33q0 -2 -0.5 -6.5
t-4 -15.5t-9.5 -19.5t-19 -15.5t-31 -7l-241 251l-131 -114l-196 182l-197 -182v628q0 22 7 36.5t19 19.5t19.5 6.5t18.5 1.5h701q10 0 17.5 -1.5t20 -6.5t19.5 -19.5t7 -36.5v-701zM672 607q-53 0 -90.5 -37.5t-37.5 -90.5t37.5 -90.5t90 -37.5t90 37.5t37.5 90.5t-37 90.5
t-90 37.5z" />
    <glyph glyph-name="uniE602" unicode="&#xe602;" 
d="M645 786l-35 -21q91 -65 144.5 -165.5t53.5 -215.5q0 -116 -54 -217t-146 -164l35 -21q94 71 148 176t54 226t-53.5 226t-146.5 176zM512 384q0 -86 -39 -160.5t-105 -122.5l35 -21q68 54 108 134t40 170t-39 169t-106 133l-35 -21q66 -48 103.5 -121.5t37.5 -159.5z
M234 384q0 -61 -42 -104l33 -18q46 52 46 122t-46 122l-33 -18q42 -46 42 -104z" />
    <glyph glyph-name="uniE603" unicode="&#xe603;" 
d="M500 103q-64 0 -122 25q-56 24 -99 67t-66 99q-25 58 -25 121.5t25 121.5q23 56 66 99t99 66q58 25 121.5 25t121.5 -25q56 -23 99 -66t67 -99q25 -58 25 -121.5t-25 -121.5q-24 -56 -67 -99t-99 -67q-58 -25 -121 -25zM500 682q-110 0 -188.5 -78.5t-78.5 -188.5
t78.5 -188t188.5 -78t188 78t78 188t-78 188.5t-188 78.5zM500 682zM885 -41q-29 0 -50 21l-134 130l31 32l135 -130q8 -8 18.5 -8t18 7.5t7.5 18t-8 18.5l-130 135l32 31l131 -134q20 -21 20 -50.5t-20.5 -50t-50.5 -20.5zM885 -41zM365 280q-56 56 -56 135t56 136l32 -33
q-43 -42 -43 -102.5t43 -103.5zM365 280z" />
    <glyph glyph-name="uniE604" unicode="&#xe604;" 
d="M599 -146h-174h-81q-27 0 -69 2.5t-62.5 8t-43.5 14.5t-32 24.5t-9 36.5v17q0 121 87 206.5t210 85.5h174q123 0 210 -85.5t87 -206.5v-17q0 -16 -5.5 -28.5t-19 -21.5t-26.5 -15.5t-38 -10.5t-43 -6t-52 -3t-54 -1h-59v0zM423 201q-103 0 -176.5 -72t-73.5 -174v-17
q0 -12 22 -20t66.5 -11t75.5 -3.5t86 -0.5h178q48 0 78 0.5t76.5 3.5t71 11t24.5 20v17q0 102 -73.5 174t-176.5 72h-178v0zM503 284q-97 0 -166 68t-69 164t69 164t166.5 68t166.5 -68t69 -164t-69 -164t-167 -68v0zM316 517q0 -76 55 -130t132.5 -54t132 54t54.5 130
t-54.5 129.5t-132 53.5t-132.5 -53.5t-55 -129.5v0zM316 499z" />
    <glyph glyph-name="uniE605" unicode="&#xe605;" 
d="M832 -63q-10 0 -127 -0.5t-166 -0.5v47q17 10 40.5 75t45 124.5t35.5 59.5q105 -22 165 -82.5t60 -162.5q-2 -28 -15.5 -44t-37.5 -16zM719 413q-22 -74 -75 -120t-119 -46t-119 46t-75 120q-28 13 -35 55q-4 21 1 35.5t12 18.5l7 4q3 0 6 -5q7 18 22 34q56 54 185 55
q63 0 101.5 -10t74.5 -44q15 -15 22 -37q5 7 8 7q3 -2 8 -5t11 -17.5t2 -34.5q-7 -43 -37 -56zM309 579v195q11 6 29.5 16t73.5 26t105 16q49 0 104 -14.5t85 -29.5l31 -14v-195l-8 8q-5 5 -24 17t-41.5 21.5t-60.5 17t-80 7.5q-43 0 -80.5 -7t-61 -17.5t-40.5 -21
t-25 -17.5zM582 726v26h-47v47h-25v-47h-46v-26h46v-47h25v47h47zM518 -17v-47q-48 0 -165 0.5t-128 0.5q-24 0 -37.5 16t-14.5 44q0 102 60 162.5t164 82.5q15 0 36 -59.5t44.5 -124.5t40.5 -75zM518 -17z" />
    <glyph glyph-name="uniE606" unicode="&#xe606;" 
d="M668 579v58q0 24 -18 41t-44 17h-188q-26 0 -44.5 -17t-18.5 -41v-58h-250v-58h94v-582q0 -24 18 -41t44 -17h501q26 0 44.5 17t18.5 41v582h94v58h-251zM418 637h188v-58h-188v58zM762 -61h-501v582h501v-582zM355 433h63v-407h-63v407zM481 433h62v-407h-62v407z
M606 433h62v-407h-62v407z" />
    <glyph glyph-name="uniE607" unicode="&#xe607;" 
d="M361 283h-249q-20 0 -35 -14.5t-15 -35.5v-249q0 -20 15 -35t35 -15h249q21 0 35.5 15t14.5 35v249q0 21 -14.5 35.5t-35.5 14.5zM361 9q0 -10 -7 -17.5t-18 -7.5h-199q-10 0 -17.5 7.5t-7.5 17.5v199q0 11 7.5 18t17.5 7h199q11 0 18 -7t7 -18v-199zM523 283h-25
q-5 0 -8.5 -3.5t-3.5 -8.5v-225q0 -5 3.5 -8.5t8.5 -3.5h25q5 0 8.5 3.5t3.5 8.5v225q0 5 -3.5 8.5t-8.5 3.5zM498 482h25q5 0 8.5 3.5t3.5 9.5v323q0 5 -3.5 9t-8.5 4h-25q-5 0 -8.5 -4t-3.5 -9v-323q0 -6 3.5 -9.5t8.5 -3.5zM112 482h249q21 0 35.5 14.5t14.5 35.5v249
q0 21 -14.5 35.5t-35.5 14.5h-249q-20 0 -35 -14.5t-15 -35.5v-249q0 -21 15 -35.5t35 -14.5zM112 756q0 10 7.5 17.5t17.5 7.5h199q11 0 18 -7.5t7 -17.5v-199q0 -10 -7 -17.5t-18 -7.5h-199q-10 0 -17.5 7.5t-7.5 17.5v199zM672 208h-24q-6 0 -9.5 -3.5t-3.5 -8.5v-249
q0 -5 3.5 -9t9.5 -4h24q6 0 9.5 4t3.5 9v249q0 5 -3.5 8.5t-9.5 3.5zM946 407h-871q-5 0 -9 -3.5t-4 -8.5v-25q0 -5 4 -8.5t9 -3.5h871q5 0 9 3.5t4 8.5v25q0 5 -4 8.5t-9 3.5zM909 831h-249q-21 0 -35.5 -14.5t-14.5 -35.5v-249q0 -21 14.5 -35.5t35.5 -14.5h249
q21 0 35.5 14.5t14.5 35.5v249q0 21 -14.5 35.5t-35.5 14.5zM909 557q0 -10 -7.5 -17.5t-17.5 -7.5h-199q-10 0 -17.5 7.5t-7.5 17.5v199q0 10 7.5 17.5t17.5 7.5h199q10 0 17.5 -7.5t7.5 -17.5v-199zM797 208h-25q-5 0 -8.5 -3.5t-3.5 -8.5v-249q0 -5 3.5 -9t8.5 -4h25
q5 0 8.5 4t3.5 9v249q0 5 -3.5 8.5t-8.5 3.5zM921 283h-25q-5 0 -8.5 -3.5t-3.5 -8.5v-324q0 -5 3.5 -9t8.5 -4h25q6 0 9.5 4t3.5 9v324q0 5 -3.5 8.5t-9.5 3.5zM921 283z" />
    <glyph glyph-name="uniE608" unicode="&#xe608;" 
d="M511.5 827q-90.5 0 -172.5 -35t-141.5 -94.5t-95 -142t-35.5 -173t35.5 -172.5t95 -141.5t141.5 -95t172.5 -35.5t173 35.5t142 95t94.5 141.5t35 172.5t-35 173t-94.5 142t-142 94.5t-173 35zM511.5 -6q-105.5 0 -195 52t-141.5 141.5t-52 195t52 195.5t141.5 142
t195 52t195.5 -52t142 -142t52 -195.5t-52 -195t-142 -141.5t-195.5 -52zM647 383l-232 -179v358z" />
    <glyph glyph-name="uniE609" unicode="&#xe609;" 
d="M350 328q-1 -1 -1 -2l-44 -158q-4 -15 7 -26q8 -8 19 -8q4 0 7 1l158 43v0q3 0 5 2l422 419q19 19 19 48q0 33 -24 57l-40 40q-24 24 -58 24q-28 0 -48 -19l-421 -419h-1v-2zM882 640l-42 -42l-68 69l41 41q5 5 13 4.5t14 -6.5l40 -40q6 -6 6 -15q0 -7 -4 -11zM425 322
l304 302l68 -68l-304 -302zM369 199l22 80l59 -58zM908.5 474q-11.5 0 -20.5 -8.5t-9 -20.5v-391q0 -15 -10.5 -26t-26.5 -11h-665q-15 0 -26 11t-11 26v638q0 15 11 26t26 11h428q12 0 20.5 8.5t8.5 20.5t-8.5 20.5t-20.5 8.5h-432q-38 0 -64.5 -26.5t-26.5 -64.5v-646
q0 -38 26.5 -64.5t64.5 -26.5h673q38 0 65 26.5t27 64.5v395q0 12 -9 20.5t-20.5 8.5z" />
    <glyph glyph-name="uniE60A" unicode="&#xe60a;" 
d="M551 681h36q4 0 7.5 3t3.5 8v1q0 5 -3.5 8t-7.5 3h-36v36q0 5 -3.5 8t-7.5 3h-1q-5 0 -8.5 -3t-3.5 -8v-36h-35q-5 0 -8.5 -3t-3.5 -8v-1q0 -5 3.5 -8t8.5 -3h35v-36q0 -5 3.5 -8t8.5 -3h1q4 0 7.5 3t3.5 8v36zM202 101l-3 1q-86 61 -134 147q-50 89 -50 188q0 88 38 167
q37 78 105 137.5t157 92.5q91 34 191.5 34t192.5 -34q88 -33 156 -92.5t105 -137.5q39 -79 39 -166.5t-39 -167.5q-37 -77 -105 -136.5t-156 -91.5q-92 -34 -192 -34q-48 0 -92 8l-2 1l-211 -129v213zM249 -25l155 93q54 -11 104 -11q120 0 222 51t161.5 138.5t59.5 190.5
q-1 103 -60.5 190.5t-161.5 138.5t-222 51t-222.5 -51t-161.5 -138.5t-59 -190.5q0 -92 49 -173.5t136 -135.5v-153zM351 288q-10 0 -17.5 7.5t-7.5 17.5t7.5 17.5t17.5 7.5h311q11 0 18.5 -7.5t7.5 -17.5t-7.5 -17.5t-18.5 -7.5h-311zM288 475q-10 0 -17.5 7.5t-7.5 17.5
t7.5 17.5t17.5 7.5h437q10 0 17.5 -7.5t7.5 -17.5t-7.5 -17.5t-17.5 -7.5h-437z" />
    <glyph glyph-name="uniE60B" unicode="&#xe60b;" 
d="M130 -39q-24 0 -39.5 15.5t-15.5 39.5v463q0 17 16 29q17 14 39 14h61v109v1v1v1v2l0.5 0.5t0.5 1.5t0.5 1.5l0.5 0.5v2h1v2h1q0 1 0.5 1t0.5 1q1 0 1 1l204 213h1v1l1 1h1v1h1l1 1h1v1h1h1v1h1h1h1l1 1h1h1h1h1h1h428q23 0 39 -16t16 -38v-797q0 -23 -16 -39t-39 -16
h-28h-2h-1h-2h-567q-3 0 -5 1h-1l-1 -1h-6h-103zM130 477q-3 0 -6 -1l-4 -1v-459q0 -11 10 -11h61v7v4v461h-61zM235 16q0 -10 11 -10h567h2h1h2h28q10 0 10 10v797q0 10 -10 10h-392v-162q0 -30 -20 -52t-49 -22h-150v-571zM244 632h141q10 0 17 8.5t7 20.5v143zM416 505
q-10 0 -16.5 6.5t-6.5 16t6.5 16t16.5 6.5h280q9 0 15.5 -6.5t6.5 -16t-6.5 -16t-15.5 -6.5h-280zM416 338q-10 0 -16.5 6.5t-6.5 15.5t6.5 15.5t16.5 6.5h280q9 0 15.5 -6.5t6.5 -15.5t-6.5 -15.5t-15.5 -6.5h-280zM416 170q-10 0 -16.5 6.5t-6.5 15.5t6.5 15.5t16.5 6.5
h280q9 0 15.5 -6.5t6.5 -15.5t-6.5 -15.5t-15.5 -6.5h-280z" />
    <glyph glyph-name="uniE60C" unicode="&#xe60c;" 
d="M171 -15q-38 0 -65 26.5t-27 64.5v550q0 38 27 65t65 27h80v57h47v-57h354v57h46v-57h80q38 0 65 -27t27 -65v-184h-744v-366q0 -18 13 -31.5t32 -13.5h305q10 0 17 -6.5t7 -16.5t-7 -16.5t-17 -6.5h-305zM171 671q-19 0 -32 -13t-13 -32v-137h697v137q0 19 -13 32
t-32 13h-80v-86h-46v86h-354v-86h-47v86h-80zM222 346h190v-47h-190v47zM222 174h190v-46h-190v46zM737 128v132h47v-86h86v-46h-133zM760.5 -72q-92.5 0 -158 65t-65.5 158t65.5 158t158 65t158 -65t65.5 -158t-65.5 -158t-158 -65zM760.5 328q-73.5 0 -125 -52t-51.5 -125
t51.5 -125t125 -52t125.5 52t52 125t-52 125t-125.5 52z" />
    <glyph glyph-name="uniE60D" unicode="&#xe60d;" 
d="M543 837q-26 0 -54 -7q-107 -27 -142 -143q-23 -78 -5 -169q10 -50 30 -85.5t58 -81.5q4 -5 5 -6q12 -31 -8.5 -69.5t-52.5 -49.5q-52 -18 -96 -37q-88 -38 -141 -79q-51 -41 -61 -76q-3 -12 -4 -51q0 -35 27 -57q5 -5 16 -12t19 -12l7 -4h148h252h264h134q3 2 8 6
t18 15.5t22.5 23t16.5 27t6 28.5v8q0 28 -25 62q-27 36 -85 71q-82 50 -198 85q-63 19 -64 51q-1 39 18 63q53 65 77 160q21 83 6 161q-16 87 -75 134q-55 44 -121 44v0z" />
    <glyph glyph-name="uniE60E" unicode="&#xe60e;" 
d="M505 670q-38 56 -89.5 87t-103 33.5t-102 -16.5t-89.5 -55.5t-63 -91t-24 -116.5q0 -36 9.5 -72t23 -64.5t39 -61t44.5 -54t53 -51.5t52.5 -45t52.5 -43q38 -29 76 -58.5t55 -42.5t34.5 -27.5t31.5 -28.5q11 12 21.5 21.5t30 25t31.5 24.5t50 38t63 48q44 34 75 60
t72 67.5t66 79t43 87t18 98.5q0 62 -24 116.5t-63 91t-89.5 55t-102 16t-103 -33.5t-88.5 -87zM689 416h-138v138q0 9 -6 15t-14.5 6t-15 -6t-6.5 -15v-138h-138q-8 0 -14.5 -6t-6.5 -14.5t6.5 -15t14.5 -6.5h138v-138q0 -8 6.5 -14.5t15 -6.5t14.5 6.5t6 14.5v138h138
q9 0 15 6.5t6 15t-6 14.5t-15 6z" />
    <glyph glyph-name="uniE60F" unicode="&#xe60f;" 
d="M715 128q48 34 71.5 88.5t15.5 113.5q-10 73 -60 123.5t-121 60.5l-23 91q-5 23 -17 36.5t-35 28.5q42 35 42 89q0 47 -30 81.5t-84 34.5q-51 0 -83.5 -32t-41.5 -90l-33 -202q-6 -31 12 -53q16 -20 50 -27l-9 -52q-2 -12 9 -19l32 -19l-56 -364q-2 -8 3.5 -14.5
t14.5 -6.5h68v-66q0 -8 5.5 -13t13 -5t12.5 5t5 13v66h105l-18 -61q-2 -7 1.5 -14t10.5 -9h6q13 0 17 13l21 71h105q9 0 14.5 7t3.5 16zM403 628l-20 -121q-19 4 -27 14q-7 8 -4 23l33 204q15 91 89 91q38 0 57.5 -23.5t19.5 -56.5q0 -49 -46 -73h-2l-2 1q-9 1 -18 1
q-30 0 -52 -16t-27 -41q-1 -1 -1 -3zM677 131l24 -98h-308l50 328l107 -64q4 -3 9 -3q10 0 16 9q3 7 1.5 14t-8.5 11l-161 97l32 197q2 12 14 21t30 9q6 0 12 -1q26 -4 45 -21t23 -33l25 -105q4 -13 17 -13q62 -5 107 -48t54 -106q6 -52 -16 -99t-65 -75q-11 -7 -8 -20z" />
    <glyph glyph-name="uniE610" unicode="&#xe610;" 
d="M520 -53l-17 16q-23 24 -89 75q-60 45 -105 81h-1q-41 33 -64.5 52.5t-59 52.5t-60.5 64q-98 117 -98 240q0 129 88 218q40 40 92 62.5t106 22.5q123 0 208 -105q85 105 209 105q54 0 105.5 -22t91.5 -63q88 -88 88 -217q0 -66 -28 -131q-24 -55 -70 -111
q-60 -73 -186 -169q-24 -19 -63 -48q-100 -77 -130 -107zM312 784q-44 0 -86.5 -18t-76.5 -50.5t-55 -81.5t-21 -106q0 -34 9 -67.5t22 -60.5t37 -57.5t42.5 -51t51 -49.5t50.5 -44t52 -42l2 -1q44 -35 103 -80q57 -44 78 -62q27 24 118 94q39 30 64 49q45 34 77.5 61.5
t70.5 66.5t61.5 74.5t39.5 80.5t16 90q0 75 -36 135t-90 90t-112 30q-56 0 -105 -28.5t-84 -82.5l-20 -29l-20 29q-35 54 -84 82.5t-104 28.5zM705 433h-138v138q0 9 -6 15t-15 6t-15 -6t-6 -15v-138h-138q-9 0 -15 -6t-6 -15t6 -15t15 -6h138v-138q0 -9 6 -15t15 -6t15 6
t6 15v138h138q9 0 15 6t6 15t-6 15t-15 6z" />
    <glyph glyph-name="uniE611" unicode="&#xe611;" 
d="M851 635h-57v-56h57v-362h-57q-17 3 -26 -11l-48 -83l-47 83q-6 11 -22 11h-140h-7q-12 0 -20.5 -8t-8.5 -20q0 -11 8.5 -19.5t20.5 -8.5h7h49h70l66 -116q4 -9 18 -11q20 -4 29 11l67 117h40q23 0 40 16.5t17 39.5v362q0 23 -16.5 39t-39.5 16zM851 635zM709 245
q24 0 40.5 16.5t16.5 39.5v362q0 23 -16.5 39.5t-40.5 16.5h-538q-23 0 -39.5 -16.5t-16.5 -39.5v-362q0 -22 16 -38t39 -17h37l89 -118q7 -11 23 -10q16 -1 23 11l75 116h292zM376 290l-59 -92l-70 93q-7 10 -19 10h-57v362h538v-362h-311v-1q-16 1 -22 -10zM376 290z
M256 482q0 -18 12.5 -30.5t30 -12.5t30 12.5t12.5 30t-12.5 30t-30 12.5t-30 -12.5t-12.5 -29.5zM256 482zM397 482q0 -18 12.5 -30.5t30 -12.5t30 12.5t12.5 30t-12.5 30t-30 12.5t-30 -12.5t-12.5 -29.5zM397 482zM539 482q0 -18 12.5 -30.5t30 -12.5t30 12.5t12.5 30
t-12.5 30t-30 12.5t-29.5 -12q-13 -12 -13 -30zM539 482z" />
    <glyph glyph-name="uniE612" unicode="&#xe612;" 
d="M822 853h-587q-6 0 -6 -6v-922q0 -6 6 -6h587q6 0 6 6v922q0 6 -6 6zM528 -48q-17 0 -29 12t-12 29t12 29t29 12t29 -12t12 -29t-12 -29t-29 -12zM787 125v-17q0 -7 -6 -7h-505q-7 0 -7 7v595q0 6 7 6h505q6 0 6 -6v-578zM708 526h-209v-68h125v-72h84v140zM348 271h124
l71 -75l1 75h60v171h-256v-171z" />
    <glyph glyph-name="uniE613" unicode="&#xe613;" 
d="M930 293l46 -10l-1 -6q-17 -75 -58.5 -142t-101.5 -116q-127 -104 -291 -104q-94 0 -179.5 37t-147.5 98.5t-98.5 147t-36.5 179.5t36.5 179.5t98.5 147t147.5 98.5t179.5 37q119 0 223.5 -58t167.5 -159v113v6h6h52v-298l-258 149l29 51l137 -80q-52 100 -148.5 158.5
t-208.5 58.5q-109 0 -202 -54t-147.5 -147t-54.5 -202t54.5 -202t147 -147t202.5 -54q141 0 252 89t142 227zM689 140h-374v177q0 50 32 88.5t81 48.5q-51 37 -51 101q0 52 36.5 88.5t88.5 36.5t88.5 -36.5t36.5 -88.5q0 -64 -51 -101q48 -10 80.5 -48.5t32.5 -88.5v-177z
M622 198h9v119q0 33 -24 57t-58 24h-94q-34 0 -58 -24t-24 -58v-118h7h242zM502 622q-28 0 -47.5 -19.5t-19.5 -47.5t19.5 -47.5t47.5 -19.5t47.5 19.5t19.5 47.5t-19.5 47.5t-47.5 19.5zM502 622z" />
    <glyph glyph-name="uniE614" unicode="&#xe614;" 
d="M885 -77h-138v373q0 8 -6 14t-14.5 6t-14.5 -6t-6 -14v-373h-460v125h-2q-43 0 -71.5 30.5t-28.5 74.5l1 301q10 32 37.5 52t61.5 20h343l-269 -443q109 0 193 65q138 106 156 363l1 15h112q43 0 74 -31t31 -74v-498zM778 -46h76v467q0 30 -21.5 52t-52.5 22h-83
q-7 -85 -28 -154t-48 -114t-63 -78.5t-68 -51.5t-68.5 -28.5t-59.5 -13.5t-45 -3t-27 2l-13 1v-101h398v342q0 21 15 36t36.5 15t36 -15t14.5 -36v-343zM170 428v-275q0 -31 21.5 -52.5t52.5 -21.5h33v-5l255 421h-288q-26 0 -46.5 -17t-26.5 -42zM331 209h-85v138h85v-138z
M277 240h23v76h-23v-76zM509 534q-65 0 -111 46t-46 110.5t46 110.5t111 46t111 -46t46 -110.5t-46 -110.5t-111 -46zM509 817q-52 0 -89 -37t-37 -89.5t37 -89.5t89 -37t89 37t37 89.5t-37 89.5t-89 37z" />
    <glyph glyph-name="uniE615" unicode="&#xe615;" 
d="M666 730q34 -10 58.5 -41t24.5 -68v-115q0 -39 -19 -58h19q54 0 102 -19q13 51 13 77v115q0 97 -68.5 167t-168.5 70q-38 0 -51 -7q58 -48 90 -121zM480 32h-262q-24 0 -41 17t-17 41q19 76 87 127.5t150 51.5q25 0 77 -13q19 48 55 88.5t79 65.5q19 48 19 96v115
q0 97 -68.5 167t-168.5 70q-97 0 -166.5 -68.5t-69.5 -168.5v-115q0 -96 64 -160q-71 -41 -121.5 -106.5t-64.5 -143.5q0 -73 51.5 -126t127.5 -53h352q-51 41 -83 115zM275 621q0 48 33.5 81.5t81.5 33.5t82 -33.5t34 -81.5v-115q4 -52 -28 -87t-81 -35q-48 0 -81.5 33.5
t-33.5 81.5v122h-7zM922 90q24 0 40.5 16.5t16.5 40.5t-16.5 41t-40.5 17h-13q0 3 -3.5 9.5t-3.5 9.5l7 6q19 20 19 42t-19 41.5t-41.5 19.5t-41.5 -19l-7 -7q-3 0 -9.5 3.5t-9.5 3.5v12q0 24 -17 41t-41 17t-40.5 -17t-16.5 -41v-12q-3 0 -9.5 -3.5t-9.5 -3.5l-7 7
q-19 19 -41.5 19t-41.5 -19.5t-19 -41.5t19 -42l6 -6q0 -3 -3 -9.5t-3 -9.5h-6q-24 0 -41 -17t-17 -41t17 -40.5t41 -16.5h12q0 -4 3.5 -10t3.5 -10l-7 -6q-19 -19 -19 -41.5t19.5 -41.5t41.5 -19t42 19l6 6q3 0 9.5 -3t9.5 -3v-13q0 -24 17 -41t41 -17t40.5 17t16.5 41v13
q4 0 10 3t10 3l6 -6q19 -19 41.5 -19t41.5 19t19 41.5t-19 41.5l-6 6q0 4 3 10t3 10h7zM749 32q-48 0 -81.5 33.5t-33.5 81.5t33.5 81.5t81.5 33.5t81.5 -33.5t33.5 -81.5t-33.5 -81.5t-81.5 -33.5zM749 32z" />
    <glyph glyph-name="uniE616" unicode="&#xe616;" 
d="M909 -32h-45h-704h-45q-33 0 -58 25t-25 58v563q0 34 25 59t58 25h45v0h134l52 83q0 8 16 13.5t28 5.5h250q13 0 29 -5.5t16 -13.5l51 -83h134h45q34 0 58.5 -25t24.5 -59v-563q-4 -34 -30 -58.5t-59 -24.5v0zM512 614q-110 0 -189.5 -79t-79.5 -189.5t79.5 -189.5
t189.5 -79t189.5 79t79.5 190q0 110 -79.5 189t-189.5 79v0zM512 154q-77 0 -131.5 54t-54.5 131q0 81 54.5 136.5t131.5 55.5t131.5 -54.5t54.5 -130.5q0 -82 -54.5 -137t-131.5 -55v0z" />
    <glyph glyph-name="uniE617" unicode="&#xe617;" horiz-adv-x="1047" 
d="M484 -71h-157l-28 6q-61 0 -144 14q-69 0 -103 68v83q9 36 34.5 65.5t61.5 44.5q25 10 69 27t68 28q21 6 34 24t8 38v8l-21 34q-20 34 -27 54q0 8 -8 8q-30 20 -39.5 57.5t5.5 73.5v20q-14 41 -9.5 84t21.5 79.5t50.5 65t76.5 41.5h48l75 -43h14q36 7 67 -17.5t37 -64.5
q10 -68 0 -145v-20q9 -37 1.5 -70.5t-29.5 -59.5q-6 0 -20 -15q-13 -27 -31.5 -75t-24.5 -63q-46 -84 -29.5 -176t85.5 -154q6 -8 12 -14l-96 -6h-1zM767.5 389q-93.5 0 -160 -66.5t-66.5 -160t67 -160.5t160 -67t160 67t67 160.5t-67 160t-160.5 66.5zM768 17v83h-125v117
h117v90l145 -145l-137 -144v-1z" />
    <glyph glyph-name="uniE618" unicode="&#xe618;" 
d="M963 197zM972 226h-637h-172h-147l441 -333l-51 205h567l-1 128v0zM66 487h809h147l-453 332l51 -204h-554v-128v0zM66 487z" />
    <glyph glyph-name="uniE619" unicode="&#xe619;" 
d="M929 132q31 -26 48 -61q21 -41 21 -87q0 -81 -57.5 -138.5t-138.5 -57.5t-138 57.5t-57 138.5q0 46 20 87q18 35 48 61v528q0 52 37.5 89.5t89.5 37.5q53 0 90 -37.5t37 -89.5v-528zM335 781q32 0 54.5 -22.5t22.5 -54.5t-22.5 -54.5t-54.5 -22.5t-54.5 22.5t-22.5 54.5
t22.5 54.5t54.5 22.5zM306 243v-423h-75v423v250q-65 24 -114 73q-91 90 -91 218q0 12 8 20t19.5 8t19.5 -8t8 -20q0 -105 74.5 -179.5t179.5 -74.5t179.5 74.5t74.5 179.5q0 12 8 20t19.5 8t19.5 -8t8 -20q0 -128 -91 -218q-49 -49 -114 -73v-250v-423h-75v423h-58zM854 54
q35 -26 35 -69q0 -36 -25.5 -61t-61 -25t-61 25t-25.5 61q0 43 35 69v409q0 21 15 36t36 15q22 0 37 -15t15 -36v-20h-58v-31h58v-60h-22v-31h22v-267zM821 564h61v61h-97v31h97v4q0 33 -23.5 56t-56.5 23q-32 0 -55.5 -23t-23.5 -56v-539v-12l-10 -7q-27 -21 -43 -52
t-16 -66q0 -61 43.5 -104.5t105 -43.5t104.5 43.5t43 104.5q0 35 -15 66q-16 31 -44 52l-9 7v12v412h-61v31z" />
    <glyph glyph-name="uniE61A" unicode="&#xe61a;" 
d="M950 582q0 3 -1 5l-1 1v1q-1 4 -4 6l-294 295l-6 4h-2v1q-3 1 -6 1h-1h-393q-70 0 -119 -49.5t-49 -119.5v-686q0 -70 49 -119.5t119 -49.5h540q70 0 119 49.5t49 119.5v539v1v1zM656 823l221 -221h-169q-21 0 -36.5 15t-15.5 37v169zM782 -85h-540q-52 0 -89 37t-37 89
v686q0 52 37 89t89 37h371v-199q0 -39 28 -67t67 -28h200v-518q0 -52 -37 -89t-89 -37zM757 405h-150v151q0 9 -6.5 15t-14.5 6h-148q-8 0 -14.5 -6t-6.5 -15v-151h-150q-9 0 -15.5 -6t-6.5 -15v-147q0 -9 6.5 -15.5t15.5 -6.5h150v-150q0 -9 6.5 -15t14.5 -6h148
q8 0 14.5 6t6.5 15v150h150q9 0 15.5 6.5t6.5 15.5v147q0 9 -6.5 15t-15.5 6zM736 258h-150q-9 0 -15.5 -6t-6.5 -15v-151h-104v151q0 9 -6.5 15t-15.5 6h-150v105h150q9 0 15.5 6t6.5 15v150h104v-150q0 -9 6.5 -15t15.5 -6h150v-105z" />
    <glyph glyph-name="uniE61B" unicode="&#xe61b;" 
d="M512 830q-92 0 -170 -45.5t-123.5 -123.5t-45.5 -170q0 -131 90 -228q9 -10 23 -11t24 8.5t10.5 23t-8.5 23.5q-72 79 -72 184q0 113 79.5 193t192.5 80t192.5 -80t79.5 -193q0 -105 -72 -184q-9 -10 -8.5 -23.5t10.5 -22.5t23 -9q14 0 24 11q90 97 90 228
q0 92 -45.5 170t-123.5 123.5t-170 45.5zM640 84.5q-13 4.5 -25.5 -1t-16.5 -18.5q-10 -27 -33.5 -44t-52.5 -17t-52.5 17t-33.5 44q-4 13 -16.5 18.5t-25.5 1t-18.5 -16.5t-1.5 -25q17 -47 57.5 -76t90.5 -29t90.5 29t57.5 76q4 13 -1.5 25t-18.5 16.5zM494 614
q12 -6 25 -1.5t19 17t1.5 25.5t-17.5 19q-45 21 -94 12.5t-84 -43.5t-43.5 -84.5t12.5 -93.5q9 -19 30 -19q8 0 14 3q13 6 17.5 19t-1.5 25q-12 26 -7.5 54.5t25 49t49 25t54.5 -7.5zM652 202h-280q-14 0 -23.5 -9.5t-9.5 -23t9.5 -23.5t23.5 -10h280q14 0 23.5 10t9.5 23.5
t-9.5 23t-23.5 9.5z" />
    <glyph glyph-name="uniE61C" unicode="&#xe61c;" 
d="M698.5 280q-50.5 0 -86 -35.5t-35.5 -86t35.5 -86t86 -35.5t86 35.5t35.5 86t-35.5 86t-86 35.5zM750 122q8 -8 0 -15.5t-15 -0.5l-37 37l-36 -37q-8 -7 -15.5 0.5t-0.5 15.5l37 36l-37 37q-7 8 0.5 15.5t15.5 -0.5l36 -36l37 36q7 8 15 0.5t0 -15.5l-36 -37zM216 102
q-7 0 -12.5 5.5t-5.5 12.5v499q0 7 5.5 12.5t12.5 5.5h423q8 0 13 5.5t5 13t-5 13t-13 5.5h-423q-22 0 -38.5 -16.5t-16.5 -38.5v-499q0 -23 16.5 -39t38.5 -16h349q-6 18 -9 37h-340zM753 302v59q0 7 -5.5 12.5t-13 5.5t-13 -5.5t-5.5 -12.5v-59q9 1 18 1q10 0 19 -1z
M947 715q-45 -5 -123.5 -53t-150.5 -105t-155.5 -131.5t-120.5 -109.5t-64 -62l-3 -2q14 7 36.5 19.5t84 44t114.5 55.5t110.5 44.5t88 22t42.5 6.5t7.5 11.5t-13 13t-18.5 10.5l-10 5q9 0 22.5 0.5t38 7t29 16.5t-1 27t-13.5 29l-7 12q10 2 40 5q24 2 36 14t1 25
q-7 8 3 22.5t21 34.5t6 38z" />
    <glyph glyph-name="uniE61D" unicode="&#xe61d;" 
d="M512 752q-91 0 -174 -35.5t-143 -95.5t-95.5 -143t-35.5 -174t35.5 -174t95.5 -143t143 -95.5t174 -35.5t174 35.5t143 95.5t95.5 143t35.5 174t-35.5 174t-95.5 143t-143 95.5t-174 35.5zM512 -80q-104 0 -192.5 51.5t-140 140t-51.5 192.5t51.5 192.5t140 140
t192.5 51.5t192.5 -51.5t140 -140t51.5 -192.5t-51.5 -192.5t-140 -140t-192.5 -51.5zM647.5 439.5q-9.5 9.5 -22.5 9.5t-23 -9l-90 -91l-91 91q-9 9 -22 9t-22.5 -9.5t-9.5 -22.5t9 -23l91 -90l-91 -91q-9 -9 -9 -22t9.5 -22.5t22.5 -9.5t22 9l91 91l90 -91q10 -9 23 -9
t22.5 9.5t9.5 22.5t-9 22l-91 91l91 90q9 10 9 23t-9.5 22.5z" />
    <glyph glyph-name="uniE633" unicode="&#xe633;" 
d="M383 894h253q104 0 191.5 -51t138.5 -139t51 -191v-254q0 -104 -51 -192t-138.5 -139t-191.5 -51h-253q-104 0 -191.5 51t-138.5 139t-51 192v254q0 103 51 191t138.5 139t191.5 51zM427 483q-2 2 -5 4t-12 7t-19 7t-24.5 -0.5t-28.5 -10.5q-20 -12 -29.5 -32t-8.5 -34
l1 -14q-4 0 -11 -2t-24.5 -11t-30.5 -21.5t-24 -35.5t-11 -52t12 -50.5t26.5 -31t33 -15.5t26 -6.5t11.5 -0.5h170v108h-54l90 96l89 -96h-53v-108h154q4 0 11 0.5t25 6t32.5 14.5t28 29t17.5 48q2 30 -7.5 54t-24 37t-29.5 22t-25 12l-11 3q-1 0 0.5 8.5t-1.5 23t-6 32
t-13 36t-23.5 34t-37 27.5t-52.5 15q-35 4 -64.5 -5.5t-47 -25t-29.5 -32t-17 -28.5z" />
    <glyph glyph-name="uniE636" unicode="&#xe636;" 
d="M814 442h-497q0 12 -1.5 43t-1 51.5t3 48t12.5 50.5t26 41q30 33 71.5 55.5t84.5 22.5q66 0 117 -43.5t78 -112.5q8 -20 16 -29t23 -10q24 0 35.5 14.5t9 32t-5.5 31.5q-76 195 -273 195q-69 0 -112 -17t-83 -61q-19 -21 -34 -49t-22.5 -55.5t-13 -57.5t-6.5 -56t-2 -51
t0 -43h-29q-20 0 -34.5 -14.5t-14.5 -34.5v-409q0 -20 14.5 -34t34.5 -14h604q20 0 34.5 14t14.5 34v409q0 20 -14.5 34.5t-34.5 14.5zM785 53q0 -16 -11.5 -27.5t-27.5 -11.5h-468q-16 0 -27 11q-12 12 -12 28v273q0 16 11.5 27.5t27.5 11.5h468q16 0 27.5 -11.5
t11.5 -27.5v-273zM785 53z" />
  </font>
</defs>
</svg>
